if (_typeface_js && _typeface_js.loadFace) _typeface_js.loadFace({"glyphs":{"Ő":{"x_min":65,"x_max":1016,"ha":1080,"o":"m 541 1012 q 883 870 750 1012 q 1016 497 1016 729 q 883 124 1016 265 q 541 -17 750 -17 q 198 124 332 -17 q 65 497 65 266 q 198 870 65 729 q 541 1012 332 1012 m 540 96 q 784 201 689 96 q 880 497 880 307 q 785 793 880 687 q 542 899 690 899 q 296 793 392 899 q 201 497 201 687 q 296 202 201 308 q 540 96 392 96 m 812 1248 l 662 1057 l 562 1057 l 652 1248 l 812 1248 m 583 1248 l 433 1057 l 333 1057 l 423 1248 l 583 1248 "},"Ž":{"x_min":25,"x_max":811,"ha":848,"o":"m 811 0 l 25 0 l 25 123 l 642 876 l 82 876 l 82 994 l 794 994 l 794 870 l 176 118 l 811 118 l 811 0 m 638 1247 l 488 1057 l 357 1057 l 208 1247 l 346 1247 l 423 1132 l 499 1247 l 638 1247 "},"ĥ":{"x_min":94,"x_max":681,"ha":773,"o":"m 222 628 q 437 736 317 736 q 681 470 681 736 l 681 0 l 553 0 l 553 465 q 521 592 553 553 q 417 631 489 631 q 222 515 319 631 l 222 0 l 94 0 l 94 994 l 222 994 l 222 628 m 608 1058 l 470 1058 l 393 1173 l 316 1058 l 177 1058 l 328 1248 l 458 1248 l 608 1058 "},"˻":{"x_min":104,"x_max":358.828125,"ha":463,"o":"m 358 0 l 104 0 l 104 254 l 192 254 l 192 88 l 358 88 l 358 0 "},"e":{"x_min":49,"x_max":723.796875,"ha":773,"o":"m 400 -17 q 145 82 241 -17 q 49 359 49 181 q 142 635 49 535 q 386 736 235 736 q 631 637 540 736 q 723 359 723 539 l 723 329 l 186 329 q 247 143 186 203 q 399 83 309 83 q 522 117 467 83 q 577 215 577 151 l 710 215 q 609 43 695 103 q 400 -17 523 -17 m 589 429 q 519 584 573 532 q 386 636 464 636 q 254 584 309 636 q 184 429 199 533 l 589 429 "},"ˌ":{"x_min":187,"x_max":275,"ha":462,"o":"m 275 -285 l 187 -285 l 187 -30 l 275 -30 l 275 -285 "},"ʱ":{"x_min":61,"x_max":453,"ha":514,"o":"m 453 328 l 368 328 l 368 640 q 277 751 368 751 q 146 673 211 751 l 146 328 l 61 328 l 61 853 q 195 1006 61 1006 q 259 1000 236 1006 l 259 926 q 207 931 232 931 q 146 852 146 931 l 146 748 q 290 822 210 822 q 453 644 453 822 l 453 328 "},"Ᵽ":{"x_min":14,"x_max":865,"ha":926,"o":"m 14 737 l 111 737 l 111 994 l 481 994 q 686 971 603 994 q 816 872 768 948 q 865 703 865 797 q 769 475 865 553 q 492 397 673 397 l 242 397 l 242 0 l 111 0 l 111 648 l 14 648 l 14 737 m 242 515 l 494 515 q 675 562 621 515 q 729 699 729 610 q 699 805 729 759 q 623 863 669 851 q 491 876 577 876 l 242 876 l 242 737 l 496 737 l 496 648 l 242 648 l 242 515 "},"ļ":{"x_min":35.59375,"x_max":311,"ha":316,"o":"m 222 0 l 94 0 l 94 994 l 222 994 l 222 0 m 102 -47 l 141 -47 q 311 -159 311 -47 q 105 -291 311 -291 q 35 -291 74 -291 l 35 -209 q 109 -214 72 -214 q 197 -158 197 -214 q 102 -107 197 -107 l 102 -47 "},"Ĕ":{"x_min":111,"x_max":852.234375,"ha":926,"o":"m 852 0 l 111 0 l 111 994 l 829 994 l 829 876 l 242 876 l 242 572 l 791 572 l 791 454 l 242 454 l 242 118 l 852 118 l 852 0 m 677 1239 q 613 1109 669 1155 q 474 1063 558 1063 q 333 1109 388 1063 q 279 1239 279 1156 l 359 1239 q 475 1147 375 1147 q 593 1239 574 1147 l 677 1239 "},"˂":{"x_min":77,"x_max":735,"ha":812,"o":"m 735 153 l 77 433 l 77 547 l 735 826 l 735 705 l 212 490 l 735 275 l 735 153 "}," ":{"x_min":0,"x_max":0,"ha":694,"o":"m 0 0 l 0 0 "},"ţ":{"x_min":24,"x_max":403,"ha":386,"o":"m 289 -157 q 194 -106 289 -106 l 194 2 q 125 78 138 28 q 113 211 113 128 l 113 620 l 24 620 l 24 720 l 113 720 l 113 899 l 241 899 l 241 720 l 357 720 l 357 620 l 241 620 l 241 204 q 259 110 241 130 q 310 90 278 90 q 374 96 343 90 l 374 0 q 289 -9 331 -9 l 289 -51 q 403 -159 403 -65 q 197 -290 403 -290 q 127 -290 166 -290 l 127 -208 q 201 -213 164 -213 q 289 -157 289 -213 "},"^":{"x_min":50.1875,"x_max":600.1875,"ha":652,"o":"m 600 576 l 474 576 l 324 870 l 174 576 l 50 576 l 276 994 l 373 994 l 600 576 "},"￼":{"x_min":0,"x_max":1389,"ha":1389,"o":"m 1389 779 l 1321 779 l 1321 931 l 1169 931 l 1169 999 l 1389 999 l 1389 779 m 999 931 l 780 931 l 780 999 l 999 999 l 999 931 m 1389 390 l 1321 390 l 1321 609 l 1389 609 l 1389 390 m 1209 414 q 1065 251 1209 251 q 971 281 1007 251 l 1021 334 q 1065 317 1038 317 q 1130 411 1130 317 l 1130 738 l 1209 738 l 1209 414 m 609 931 l 390 931 l 390 999 l 609 999 l 609 931 m 1389 0 l 1169 0 l 1169 68 l 1321 68 l 1321 219 l 1389 219 l 1389 0 m 965 400 q 778 259 965 259 l 616 259 l 616 739 l 775 739 q 945 612 945 739 q 884 514 945 551 q 965 400 965 483 m 219 931 l 68 931 l 68 779 l 0 779 l 0 999 l 219 999 l 219 931 m 999 0 l 780 0 l 780 68 l 999 68 l 999 0 m 579 498 q 523 316 579 381 q 363 251 467 251 q 205 316 260 251 q 151 498 151 381 q 205 681 151 616 q 363 747 260 747 q 523 681 467 747 q 579 498 579 616 m 68 390 l 0 390 l 0 609 l 68 609 l 68 390 m 609 0 l 390 0 l 390 68 l 609 68 l 609 0 m 219 0 l 0 0 l 0 219 l 68 219 l 68 68 l 219 68 l 219 0 m 866 605 q 755 673 866 673 l 695 673 l 695 541 l 763 541 q 866 605 866 541 m 886 400 q 770 475 886 475 l 695 475 l 695 325 l 778 325 q 886 400 886 325 m 500 498 q 363 681 500 681 q 230 498 230 681 q 363 317 230 317 q 500 498 500 317 "},"ˆ":{"x_min":15.59375,"x_max":445.5625,"ha":463,"o":"m 445 821 l 307 821 l 230 936 l 153 821 l 15 821 l 165 1012 l 295 1012 l 445 821 "},"ū":{"x_min":92,"x_max":678,"ha":773,"o":"m 551 91 q 335 -17 455 -17 q 92 248 92 -17 l 92 719 l 220 719 l 220 254 q 251 127 220 166 q 354 89 282 89 q 551 204 461 89 l 551 720 l 678 720 l 678 0 l 551 0 l 551 91 m 599 867 l 176 867 l 176 968 l 599 968 l 599 867 "},"ņ":{"x_min":94,"x_max":681,"ha":773,"o":"m 222 628 q 437 736 317 736 q 681 470 681 736 l 681 0 l 553 0 l 553 465 q 521 592 553 553 q 417 631 489 631 q 222 515 319 631 l 222 0 l 94 0 l 94 720 l 222 720 l 222 628 m 312 -47 l 351 -47 q 521 -159 521 -47 q 315 -290 521 -290 q 245 -290 284 -290 l 245 -208 q 319 -213 282 -213 q 407 -157 407 -213 q 312 -107 407 -107 l 312 -47 "},"˫":{"x_min":66,"x_max":396.53125,"ha":462,"o":"m 396 266 l 130 266 l 130 0 l 66 0 l 66 597 l 130 597 l 130 330 l 396 330 l 396 266 "},"č":{"x_min":49,"x_max":675.921875,"ha":694,"o":"m 385 -17 q 140 81 232 -17 q 49 359 49 180 q 140 637 49 539 q 385 736 232 736 q 582 676 503 736 q 675 504 661 616 l 543 504 q 497 602 543 568 q 386 636 451 636 q 237 566 294 636 q 180 359 180 497 q 237 152 180 222 q 386 83 294 83 q 497 117 451 83 q 543 215 543 151 l 675 215 q 582 42 661 102 q 385 -17 503 -17 m 582 1011 l 432 821 l 302 821 l 152 1010 l 290 1010 l 367 896 l 444 1011 l 582 1011 "},"’":{"x_min":85,"x_max":224,"ha":309,"o":"m 224 855 q 188 713 224 766 q 85 660 153 660 l 85 725 q 153 856 153 725 l 85 856 l 85 994 l 224 994 l 224 855 "},"-":{"x_min":45,"x_max":418,"ha":463,"o":"m 418 298 l 45 298 l 45 421 l 418 421 l 418 298 "},"Q":{"x_min":65,"x_max":1032.953125,"ha":1080,"o":"m 1032 13 l 955 -79 l 791 50 q 541 -17 680 -17 q 198 124 332 -17 q 65 497 65 266 q 198 870 65 729 q 541 1012 332 1012 q 883 870 750 1012 q 1016 497 1016 729 q 887 127 1016 272 l 1032 13 m 788 205 q 880 497 880 314 q 785 793 880 687 q 542 899 690 899 q 296 793 392 899 q 201 497 201 687 q 296 202 201 308 q 540 96 392 96 q 690 129 618 96 l 591 207 l 669 300 l 788 205 "},"M":{"x_min":111,"x_max":1046,"ha":1157,"o":"m 1046 0 l 921 0 l 921 845 l 637 0 l 519 0 l 236 845 l 236 0 l 111 0 l 111 994 l 308 994 l 577 165 l 848 994 l 1046 994 l 1046 0 "},"œ":{"x_min":49,"x_max":1262.46875,"ha":1311,"o":"m 1262 329 l 724 329 q 785 143 724 203 q 937 83 847 83 q 1060 117 1005 83 q 1115 215 1115 151 l 1248 215 q 1147 43 1234 103 q 938 -17 1061 -17 q 656 113 754 -17 q 385 -17 565 -17 q 140 81 232 -17 q 49 359 49 180 q 140 637 49 539 q 385 736 232 736 q 656 607 564 736 q 924 736 750 736 q 1170 637 1078 736 q 1262 359 1262 539 l 1262 329 m 1127 429 q 1057 584 1111 532 q 924 636 1002 636 q 793 584 848 636 q 723 429 738 533 l 1127 429 m 385 83 q 534 152 477 83 q 591 359 591 222 q 534 566 591 497 q 385 636 477 636 q 237 566 294 636 q 180 359 180 497 q 237 152 180 222 q 385 83 294 83 "},"ě":{"x_min":49,"x_max":723.796875,"ha":773,"o":"m 400 -17 q 145 82 241 -17 q 49 359 49 181 q 142 635 49 535 q 386 736 235 736 q 631 637 540 736 q 723 359 723 539 l 723 329 l 186 329 q 247 143 186 203 q 399 83 309 83 q 522 117 467 83 q 577 215 577 151 l 710 215 q 609 43 695 103 q 400 -17 523 -17 m 589 429 q 519 584 573 532 q 386 636 464 636 q 254 584 309 636 q 184 429 199 533 l 589 429 m 597 1011 l 448 821 l 317 821 l 167 1011 l 306 1011 l 382 896 l 459 1011 l 597 1011 "},"ũ":{"x_min":92,"x_max":678,"ha":773,"o":"m 551 90 q 335 -18 455 -18 q 92 247 92 -18 l 92 718 l 220 718 l 220 253 q 251 126 220 165 q 354 88 282 88 q 551 203 461 88 l 551 719 l 678 719 l 678 -1 l 551 -1 l 551 90 m 615 995 q 575 881 615 922 q 477 840 536 840 q 380 868 442 840 q 298 897 318 897 q 249 838 255 897 l 161 838 q 200 952 161 911 q 298 994 239 994 q 395 965 333 994 q 477 937 457 937 q 526 995 520 937 l 615 995 "},"ŭ":{"x_min":92,"x_max":678,"ha":773,"o":"m 551 91 q 335 -17 455 -17 q 92 248 92 -17 l 92 719 l 220 719 l 220 254 q 251 127 220 166 q 354 89 282 89 q 551 204 461 89 l 551 720 l 678 720 l 678 0 l 551 0 l 551 91 m 588 1003 q 525 873 580 919 q 385 827 470 827 q 244 873 299 827 q 190 1003 190 919 l 270 1003 q 387 911 286 911 q 505 1003 486 911 l 588 1003 "},"―":{"x_min":-8,"x_max":775,"ha":767,"o":"m 775 1099 l -8 1099 l -8 1168 l 775 1168 l 775 1099 "},"˯":{"x_min":91.546875,"x_max":372.3125,"ha":463,"o":"m 372 -48 l 249 -239 l 214 -239 l 91 -48 l 168 -48 l 231 -163 l 295 -48 l 372 -48 "},"{":{"x_min":39,"x_max":431,"ha":464,"o":"m 431 -292 l 393 -292 q 296 -281 337 -292 q 224 -230 255 -270 q 186 -135 194 -190 q 179 25 179 -80 q 171 182 179 131 q 134 268 164 233 q 39 304 103 304 l 39 416 q 134 451 103 416 q 171 537 164 486 q 179 693 179 588 q 186 854 179 799 q 224 949 194 909 q 296 1000 255 989 q 393 1011 337 1011 l 431 1011 l 431 905 l 409 905 q 323 867 339 905 q 307 666 307 830 q 268 451 307 519 q 151 359 229 384 q 268 268 229 335 q 307 52 307 200 q 323 -148 307 -111 q 409 -186 339 -186 l 431 -186 l 431 -292 "},"#":{"x_min":16,"x_max":757,"ha":773,"o":"m 757 619 l 623 619 l 573 372 l 702 372 l 702 272 l 552 272 l 496 0 l 393 0 l 449 272 l 232 272 l 176 0 l 74 0 l 129 272 l 16 272 l 16 372 l 150 372 l 200 619 l 71 619 l 71 719 l 221 719 l 277 994 l 379 994 l 324 719 l 541 719 l 596 994 l 699 994 l 643 719 l 757 719 l 757 619 m 520 619 l 303 619 l 253 372 l 469 372 l 520 619 "},"Ⱡ":{"x_min":14,"x_max":726.09375,"ha":772,"o":"m 726 0 l 111 0 l 111 328 l 14 328 l 14 417 l 111 417 l 111 518 l 14 518 l 14 607 l 111 607 l 111 994 l 242 994 l 242 607 l 496 607 l 496 518 l 242 518 l 242 417 l 496 417 l 496 328 l 242 328 l 242 118 l 726 118 l 726 0 "},"Ⱪ":{"x_min":111,"x_max":952,"ha":982,"o":"m 923 0 l 749 0 l 397 495 l 242 344 l 242 0 l 111 0 l 111 994 l 242 994 l 242 501 l 727 994 l 905 994 l 488 585 l 923 0 m 834 119 l 952 119 l 952 -276 l 834 -276 l 834 119 "},"Ĳ":{"x_min":127,"x_max":968.5625,"ha":1080,"o":"m 259 0 l 127 0 l 127 994 l 259 994 l 259 0 m 968 317 q 898 59 968 135 q 690 -17 827 -17 q 494 58 566 -17 q 423 257 423 133 l 423 284 l 555 284 q 689 102 555 102 q 799 142 761 102 q 837 311 837 182 l 837 994 l 968 994 l 968 317 "},")":{"x_min":50.234375,"x_max":379,"ha":462,"o":"m 137 1011 q 379 359 379 697 q 137 -292 379 21 l 50 -292 q 253 359 253 32 q 50 1011 253 686 l 137 1011 "},"︣":{"x_min":-117,"x_max":420.796875,"ha":0,"o":"m 420 1215 q 328 1071 399 1131 q 152 1004 250 1004 q -117 1060 73 1004 l -117 1158 q 161 1102 74 1102 q 270 1140 222 1102 q 325 1215 312 1172 l 420 1215 "},"︢":{"x_min":-117.796875,"x_max":420,"ha":0,"o":"m 420 1059 q 141 1113 233 1113 q 32 1074 80 1113 q -22 1000 -9 1042 l -117 1000 q -25 1144 -96 1083 q 150 1211 52 1211 q 420 1158 240 1211 l 420 1059 "},"♡":{"x_min":77,"x_max":735,"ha":812,"o":"m 735 434 l 77 434 l 77 548 l 735 548 l 735 434 m 735 736 l 77 736 l 77 850 l 735 850 l 735 736 m 735 131 l 77 131 l 77 245 l 735 245 l 735 131 "},"ˈ":{"x_min":187,"x_max":275,"ha":462,"o":"m 275 821 l 187 821 l 187 1076 l 275 1076 l 275 821 "},"a":{"x_min":53,"x_max":677,"ha":772,"o":"m 550 189 l 550 349 l 462 349 q 184 197 184 349 q 225 112 184 142 q 335 83 265 83 q 457 111 398 83 q 550 189 516 140 m 550 73 q 298 -17 452 -17 q 122 41 191 -17 q 53 190 53 99 q 487 443 53 443 l 550 443 q 541 555 550 520 q 495 613 533 590 q 376 636 458 636 q 204 514 204 636 l 81 514 q 380 736 81 736 q 598 681 520 736 q 677 465 677 626 l 677 0 l 550 0 l 550 73 "},"Ę":{"x_min":111,"x_max":852.234375,"ha":926,"o":"m 852 0 l 111 0 l 111 994 l 829 994 l 829 876 l 242 876 l 242 572 l 791 572 l 791 454 l 242 454 l 242 117 l 852 117 l 852 0 m 846 -278 q 769 -290 807 -290 q 666 -256 705 -290 q 628 -167 628 -223 q 724 0 628 -80 l 819 0 q 738 -133 738 -66 q 800 -192 738 -192 q 846 -185 822 -192 l 846 -278 "},"=":{"x_min":77,"x_max":735,"ha":812,"o":"m 735 585 l 77 585 l 77 699 l 735 699 l 735 585 m 735 282 l 77 282 l 77 396 l 735 396 l 735 282 "},"˿":{"x_min":39,"x_max":424,"ha":463,"o":"m 424 -120 l 125 -120 l 238 -284 l 174 -284 l 39 -92 l 39 -83 l 174 108 l 238 108 l 125 -56 l 424 -56 l 424 -120 "},"⁞":{"x_min":123,"x_max":262,"ha":385,"o":"m 262 95 l 123 95 l 123 234 l 262 234 l 262 95 m 262 -292 l 123 -292 l 123 -153 l 262 -153 l 262 -292 m 262 484 l 123 484 l 123 623 l 262 623 l 262 484 m 262 872 l 123 872 l 123 1011 l 262 1011 l 262 872 "},"˚":{"x_min":110,"x_max":354,"ha":463,"o":"m 232 1045 q 318 1008 282 1045 q 354 921 354 972 q 318 834 354 870 q 232 798 282 798 q 145 834 181 798 q 110 921 110 870 q 145 1008 110 972 q 232 1045 181 1045 m 231 848 q 282 869 261 848 q 304 921 304 891 q 282 973 304 951 q 231 995 261 995 q 180 973 201 995 q 160 921 160 951 q 180 869 160 891 q 231 848 201 848 "},"Z":{"x_min":25,"x_max":811,"ha":848,"o":"m 811 0 l 25 0 l 25 123 l 642 876 l 82 876 l 82 994 l 794 994 l 794 870 l 176 118 l 811 118 l 811 0 "}," ":{"x_min":0,"x_max":0,"ha":231,"o":"m 0 0 l 0 0 "},"u":{"x_min":92,"x_max":678,"ha":773,"o":"m 551 91 q 335 -17 455 -17 q 92 248 92 -17 l 92 719 l 220 719 l 220 254 q 251 127 220 166 q 354 89 282 89 q 551 204 461 89 l 551 720 l 678 720 l 678 0 l 551 0 l 551 91 "},"k":{"x_min":94,"x_max":688.578125,"ha":694,"o":"m 688 0 l 536 0 l 302 365 l 222 286 l 222 0 l 94 0 l 94 994 l 222 994 l 222 430 l 499 720 l 660 720 l 388 451 l 688 0 "},"ˏ":{"x_min":153.9375,"x_max":404.1875,"ha":463,"o":"m 404 -80 l 254 -271 l 153 -271 l 244 -80 l 404 -80 "},"ʿ":{"x_min":170,"x_max":292,"ha":462,"o":"m 292 798 q 205 833 241 798 q 170 921 170 869 q 205 1009 170 973 q 292 1045 241 1045 l 292 995 q 241 973 262 995 q 220 921 220 951 q 240 869 220 891 q 292 848 261 848 l 292 798 "},"Ů":{"x_min":111,"x_max":891,"ha":1002,"o":"m 500 -18 q 242 49 327 -18 q 133 207 156 116 q 111 418 111 298 l 111 994 l 242 994 l 242 420 q 308 162 242 224 q 500 101 374 101 q 693 162 627 101 q 759 420 759 224 l 759 994 l 891 994 l 891 418 q 847 152 891 237 q 718 24 804 66 q 500 -18 631 -18 m 501 1239 q 587 1202 551 1239 q 623 1115 623 1166 q 587 1028 623 1064 q 501 992 551 992 q 414 1028 450 992 q 379 1115 379 1064 q 414 1202 379 1166 q 501 1239 450 1239 m 500 1042 q 551 1063 530 1042 q 573 1115 573 1085 q 551 1167 573 1145 q 500 1189 530 1189 q 449 1167 470 1189 q 429 1115 429 1145 q 449 1063 429 1085 q 500 1042 470 1042 "},"Ş":{"x_min":64.109375,"x_max":854,"ha":926,"o":"m 421 -6 q 153 87 242 -6 q 64 320 64 182 l 189 320 q 281 155 199 208 q 480 102 364 102 q 658 147 591 102 q 726 270 726 192 q 656 390 726 353 q 415 463 586 427 q 171 564 245 500 q 97 736 97 629 q 193 934 97 857 q 451 1012 290 1012 q 723 933 620 1012 q 827 713 827 855 l 702 713 q 455 894 682 894 q 285 852 345 894 q 225 742 225 811 q 273 648 225 679 q 454 588 321 617 q 664 530 586 559 q 798 441 742 501 q 854 278 854 380 q 763 73 854 158 q 515 -11 672 -11 l 515 -51 q 629 -159 629 -65 q 423 -290 629 -290 q 353 -290 392 -290 l 353 -208 q 427 -213 391 -213 q 515 -157 515 -213 q 421 -107 515 -107 l 421 -6 "},"˖":{"x_min":104,"x_max":359,"ha":463,"o":"m 359 220 l 275 220 l 275 136 l 187 136 l 187 220 l 104 220 l 104 308 l 187 308 l 187 391 l 275 391 l 275 308 l 359 308 l 359 220 "},"B":{"x_min":111,"x_max":854,"ha":926,"o":"m 854 289 q 759 74 854 149 q 483 0 664 0 l 111 0 l 111 994 l 465 994 q 715 926 624 994 q 806 740 806 858 q 662 527 806 596 q 806 437 758 503 q 854 289 854 372 m 242 578 l 463 578 q 624 612 572 578 q 676 729 676 647 q 625 839 676 802 q 451 876 575 876 l 242 876 l 242 578 m 242 118 l 481 118 q 718 288 718 118 q 663 418 718 377 q 465 460 608 460 l 242 460 l 242 118 "},"…":{"x_min":62,"x_max":724,"ha":786,"o":"m 724 0 l 586 0 l 586 139 l 724 139 l 724 0 m 462 0 l 324 0 l 324 139 l 462 139 l 462 0 m 200 0 l 62 0 l 62 139 l 200 139 l 200 0 "},"ē":{"x_min":49,"x_max":723.796875,"ha":773,"o":"m 400 -17 q 145 82 241 -17 q 49 359 49 181 q 142 635 49 535 q 386 736 235 736 q 631 637 540 736 q 723 359 723 539 l 723 329 l 186 329 q 247 143 186 203 q 399 83 309 83 q 522 117 467 83 q 577 215 577 151 l 710 215 q 609 43 695 103 q 400 -17 523 -17 m 588 429 q 518 584 573 532 q 386 636 464 636 q 254 584 309 636 q 184 429 199 533 l 588 429 m 598 867 l 175 867 l 175 968 l 598 968 l 598 867 "},"H":{"x_min":111,"x_max":891,"ha":1002,"o":"m 891 0 l 759 0 l 759 468 l 242 468 l 242 0 l 111 0 l 111 994 l 242 994 l 242 586 l 759 586 l 759 994 l 891 994 l 891 0 "},"ˤ":{"x_min":61,"x_max":481.203125,"ha":542,"o":"m 481 850 l 391 850 q 288 939 391 939 q 149 753 149 939 q 178 627 149 676 q 286 568 214 568 l 330 568 l 330 328 l 244 328 l 244 504 q 103 589 151 518 q 61 753 61 654 q 115 934 61 866 q 287 1006 175 1006 q 416 967 365 1006 q 481 850 471 926 "},"‼":{"x_min":123,"x_max":648,"ha":771,"o":"m 262 -1 l 123 -1 l 123 138 l 262 138 l 262 -1 m 249 778 l 249 247 l 136 247 l 136 778 l 136 994 l 249 994 l 249 778 m 648 -1 l 509 -1 l 509 138 l 648 138 l 648 -1 m 635 778 l 635 247 l 522 247 l 522 778 l 522 994 l 635 994 l 635 778 "},"Ĥ":{"x_min":111,"x_max":891,"ha":1002,"o":"m 891 0 l 759 0 l 759 468 l 242 468 l 242 0 l 111 0 l 111 994 l 242 994 l 242 586 l 759 586 l 759 994 l 891 994 l 891 0 m 716 1058 l 578 1058 l 501 1172 l 424 1058 l 286 1058 l 436 1248 l 566 1248 l 716 1058 "},"U":{"x_min":111,"x_max":891,"ha":1002,"o":"m 500 -18 q 242 49 327 -18 q 133 207 156 116 q 111 418 111 298 l 111 994 l 242 994 l 242 420 q 308 162 242 224 q 500 101 374 101 q 693 162 627 101 q 759 420 759 224 l 759 994 l 891 994 l 891 418 q 847 152 891 237 q 718 24 804 66 q 500 -18 631 -18 "},"˒":{"x_min":170,"x_max":292,"ha":462,"o":"m 292 303 q 256 215 292 251 q 170 180 220 180 l 170 230 q 221 251 200 230 q 242 303 242 273 q 220 355 242 333 q 170 377 199 377 l 170 427 q 256 391 220 427 q 292 303 292 355 "},"F":{"x_min":111,"x_max":781.703125,"ha":848,"o":"m 781 876 l 242 876 l 242 568 l 709 568 l 709 450 l 242 450 l 242 0 l 111 0 l 111 994 l 781 994 l 781 876 "},"ĵ":{"x_min":-57.234375,"x_max":373.234375,"ha":316,"o":"m 373 821 l 234 821 l 157 936 l 81 821 l -57 821 l 92 1011 l 223 1011 l 373 821 m 222 -38 q 173 -241 222 -192 q 36 -290 124 -290 q -49 -283 -15 -290 l -49 -174 q 22 -184 -12 -184 q 79 -154 64 -184 q 94 -35 94 -124 l 94 720 l 222 720 l 222 -38 "},"ā":{"x_min":53,"x_max":677,"ha":772,"o":"m 550 189 l 550 349 l 462 349 q 184 197 184 349 q 225 112 184 142 q 335 83 265 83 q 457 111 398 83 q 550 189 516 140 m 550 73 q 298 -17 452 -17 q 122 41 191 -17 q 53 190 53 99 q 487 443 53 443 l 550 443 q 541 555 550 520 q 495 613 533 590 q 376 636 458 636 q 204 514 204 636 l 81 514 q 380 736 81 736 q 598 681 520 736 q 677 465 677 626 l 677 0 l 550 0 l 550 73 m 586 867 l 163 867 l 163 968 l 586 968 l 586 867 "},"Ĩ":{"x_min":-34,"x_max":420,"ha":385,"o":"m 259 0 l 127 0 l 127 994 l 259 994 l 259 0 m 420 1232 q 380 1118 420 1159 q 282 1077 341 1077 q 185 1105 246 1077 q 103 1134 123 1134 q 54 1075 60 1134 l -34 1075 q 5 1189 -34 1148 q 103 1231 44 1231 q 200 1202 138 1231 q 282 1174 261 1174 q 331 1232 324 1174 l 420 1232 "},"ă":{"x_min":53,"x_max":677,"ha":772,"o":"m 550 189 l 550 349 l 462 349 q 184 197 184 349 q 225 112 184 142 q 335 83 265 83 q 457 111 398 83 q 550 189 516 140 m 550 73 q 298 -17 452 -17 q 122 41 191 -17 q 53 190 53 99 q 487 443 53 443 l 550 443 q 541 555 550 520 q 495 613 533 590 q 376 636 458 636 q 204 514 204 636 l 81 514 q 380 736 81 736 q 598 681 520 736 q 677 465 677 626 l 677 0 l 550 0 l 550 73 m 584 1003 q 521 873 576 919 q 381 827 466 827 q 241 873 296 827 q 187 1003 187 919 l 266 1003 q 383 911 282 911 q 501 1003 482 911 l 584 1003 "},"*":{"x_min":44.765625,"x_max":494.390625,"ha":541,"o":"m 494 810 l 327 773 l 440 644 l 356 582 l 269 731 l 181 582 l 98 644 l 210 773 l 44 810 l 76 907 l 233 840 l 218 1011 l 320 1011 l 305 840 l 462 907 l 494 810 "},"†":{"x_min":54,"x_max":718,"ha":772,"o":"m 718 587 l 450 587 l 450 -292 l 322 -292 l 322 587 l 54 587 l 54 696 l 322 696 l 322 994 l 450 994 l 450 696 l 718 696 l 718 587 "},"ⱦ":{"x_min":24,"x_max":441.140625,"ha":455,"o":"m 374 0 q 282 -9 331 -9 q 167 19 203 -9 q 121 91 130 47 q 113 211 113 135 l 113 620 l 24 620 l 24 720 l 113 720 l 113 899 l 241 899 l 241 720 l 357 720 l 357 620 l 241 620 l 241 204 q 259 110 241 130 q 310 90 278 90 q 374 96 343 90 l 374 0 m 370 889 l 441 870 l 152 -169 l 81 -149 l 370 889 "},"‏":{"x_min":-291.875,"x_max":25,"ha":1,"o":"m 25 -276 l -24 -276 l -24 1018 l -204 1018 l -111 929 l -144 896 l -291 1041 l -144 1187 l -111 1154 l -204 1066 l 25 1066 l 25 -276 "},"ː":{"x_min":123.421875,"x_max":262.453125,"ha":386,"o":"m 262 720 l 201 581 l 184 581 l 123 720 l 262 720 m 262 0 l 123 0 l 184 139 l 201 139 l 262 0 "},"0":{"x_min":62,"x_max":710,"ha":772,"o":"m 385 1011 q 710 495 710 1011 q 385 -17 710 -17 q 62 495 62 -17 q 385 1011 62 1011 m 385 83 q 529 173 480 83 q 578 495 578 264 q 529 819 578 727 q 385 911 480 911 q 242 819 291 911 q 194 495 194 727 q 242 173 194 264 q 385 83 291 83 "},"ō":{"x_min":49,"x_max":724,"ha":773,"o":"m 386 736 q 632 637 540 736 q 724 359 724 539 q 632 81 724 180 q 386 -17 540 -17 q 140 81 232 -17 q 49 359 49 180 q 140 637 49 539 q 386 736 232 736 m 386 83 q 534 152 477 83 q 592 359 592 222 q 534 566 592 497 q 386 636 477 636 q 237 566 294 636 q 180 359 180 497 q 237 152 180 222 q 386 83 294 83 m 598 867 l 175 867 l 175 968 l 598 968 l 598 867 "},"”":{"x_min":57,"x_max":406,"ha":463,"o":"m 406 855 q 370 713 406 766 q 267 660 335 660 l 267 725 q 335 856 335 725 l 267 856 l 267 994 l 406 994 l 406 855 m 196 855 q 160 713 196 766 q 57 660 125 660 l 57 725 q 125 856 125 725 l 57 856 l 57 994 l 196 994 l 196 855 "},"ŵ":{"x_min":6.78125,"x_max":995.546875,"ha":1003,"o":"m 995 720 l 779 0 l 657 0 l 501 529 l 345 0 l 223 0 l 6 720 l 148 720 l 280 171 l 442 720 l 559 720 l 722 171 l 854 720 l 995 720 m 716 821 l 577 821 l 501 935 l 424 821 l 286 821 l 436 1011 l 566 1011 l 716 821 "},"Ķ":{"x_min":111,"x_max":923.09375,"ha":938,"o":"m 923 0 l 749 0 l 396 495 l 242 344 l 242 0 l 111 0 l 111 994 l 242 994 l 242 501 l 727 994 l 904 994 l 488 585 l 923 0 m 434 -47 l 473 -47 q 643 -159 643 -47 q 437 -291 643 -291 q 367 -291 406 -291 l 367 -209 q 441 -214 404 -214 q 529 -158 529 -214 q 434 -107 529 -107 l 434 -47 "},"Ļ":{"x_min":111,"x_max":726.09375,"ha":772,"o":"m 726 0 l 111 0 l 111 994 l 242 994 l 242 118 l 726 118 l 726 0 m 346 -48 l 385 -48 q 555 -160 555 -48 q 349 -291 555 -291 q 279 -291 318 -291 l 279 -209 q 353 -214 316 -214 q 441 -158 441 -214 q 346 -108 441 -108 l 346 -48 "},"ć":{"x_min":49,"x_max":675.921875,"ha":694,"o":"m 385 -17 q 140 81 232 -17 q 49 359 49 180 q 140 637 49 539 q 385 736 232 736 q 582 676 503 736 q 675 504 661 616 l 543 504 q 497 602 543 568 q 386 636 451 636 q 237 566 294 636 q 180 359 180 497 q 237 152 180 222 q 386 83 294 83 q 497 117 451 83 q 543 215 543 151 l 675 215 q 582 42 661 102 q 385 -17 503 -17 m 540 1012 l 391 821 l 290 821 l 381 1012 l 540 1012 "},"]":{"x_min":22.265625,"x_max":292,"ha":386,"o":"m 292 -277 l 22 -277 l 22 -175 l 164 -175 l 164 893 l 22 893 l 22 994 l 292 994 l 292 -277 "},"′":{"x_min":155.296875,"x_max":345.859375,"ha":463,"o":"m 345 1011 l 237 736 l 155 736 l 204 1011 l 345 1011 "},"ĭ":{"x_min":-39,"x_max":359,"ha":316,"o":"m 222 0 l 94 0 l 94 720 l 222 720 l 222 0 m 359 1003 q 295 873 350 919 q 155 827 240 827 q 15 873 70 827 q -39 1003 -39 919 l 41 1003 q 157 911 57 911 q 275 1003 256 911 l 359 1003 "},"8":{"x_min":58,"x_max":714,"ha":772,"o":"m 507 522 q 714 263 714 426 q 623 60 714 138 q 385 -17 532 -17 q 148 60 239 -17 q 58 263 58 138 q 264 522 58 426 q 97 764 97 619 q 176 941 97 872 q 385 1011 256 1011 q 595 941 515 1011 q 674 764 674 872 q 507 522 674 619 m 385 575 q 543 765 543 645 q 501 872 543 833 q 385 911 459 911 q 270 872 312 911 q 229 765 229 833 q 385 575 229 645 m 582 263 q 535 374 582 328 q 385 466 488 420 q 236 374 283 420 q 190 263 190 328 q 243 131 190 179 q 385 83 297 83 q 527 131 473 83 q 582 263 582 179 "},"R":{"x_min":111,"x_max":939.578125,"ha":1003,"o":"m 939 0 l 796 0 l 703 265 q 620 380 678 335 q 485 425 561 425 l 242 425 l 242 0 l 111 0 l 111 994 l 551 994 q 739 971 666 994 q 858 877 812 949 q 905 715 905 805 q 845 543 905 612 q 682 452 785 473 l 682 450 q 839 270 785 416 l 939 0 m 242 543 l 535 543 q 713 581 658 543 q 769 715 769 620 q 556 885 769 885 l 242 885 l 242 543 "},"ť":{"x_min":24,"x_max":488,"ha":488,"o":"m 374 0 q 282 -9 331 -9 q 167 19 203 -9 q 121 91 130 47 q 113 211 113 135 l 113 620 l 24 620 l 24 720 l 113 720 l 113 899 l 241 899 l 241 720 l 357 720 l 357 620 l 241 620 l 241 204 q 259 110 241 130 q 310 90 278 90 q 374 96 343 90 l 374 0 m 488 915 q 452 799 488 837 q 350 762 417 762 l 350 827 q 417 916 417 827 l 350 916 l 350 1054 l 488 1054 l 488 915 "},"Ľ":{"x_min":111,"x_max":726.09375,"ha":772,"o":"m 726 0 l 111 0 l 111 994 l 242 994 l 242 118 l 726 118 l 726 0 m 622 855 q 586 713 622 766 q 483 660 551 660 l 483 725 q 551 856 551 725 l 483 856 l 483 994 l 622 994 l 622 855 "},"Ż":{"x_min":25,"x_max":811,"ha":848,"o":"m 811 0 l 25 0 l 25 123 l 642 876 l 82 876 l 82 994 l 794 994 l 794 870 l 176 118 l 811 118 l 811 0 m 499 1085 l 374 1085 l 374 1224 l 499 1224 l 499 1085 "},"o":{"x_min":49,"x_max":724,"ha":773,"o":"m 386 736 q 632 637 540 736 q 724 359 724 539 q 632 81 724 180 q 386 -17 540 -17 q 140 81 232 -17 q 49 359 49 180 q 140 637 49 539 q 386 736 232 736 m 386 83 q 534 152 477 83 q 592 359 592 222 q 534 566 592 497 q 386 636 477 636 q 237 566 294 636 q 180 359 180 497 q 237 152 180 222 q 386 83 294 83 "},"5":{"x_min":58.046875,"x_max":716,"ha":772,"o":"m 234 600 q 407 660 297 660 q 623 572 531 660 q 716 337 716 484 q 623 83 716 184 q 377 -17 531 -17 q 161 52 251 -17 q 58 261 72 122 l 190 261 q 252 126 200 170 q 377 83 304 83 q 526 152 469 83 q 584 325 584 222 q 525 490 584 430 q 374 551 467 551 q 194 468 267 551 l 115 468 l 115 994 l 668 994 l 668 876 l 234 876 l 234 600 "},"ħ":{"x_min":0,"x_max":681,"ha":773,"o":"m 681 0 l 553 0 l 553 465 q 521 592 553 553 q 417 631 489 631 q 222 515 319 631 l 222 0 l 94 0 l 94 830 l 0 830 l 0 919 l 94 919 l 94 994 l 222 994 l 222 919 l 421 919 l 421 830 l 222 830 l 222 628 q 437 736 317 736 q 681 470 681 736 l 681 0 "},"ˬ":{"x_min":16.28125,"x_max":446.234375,"ha":463,"o":"m 446 -80 l 296 -271 l 166 -271 l 16 -80 l 154 -80 l 231 -195 l 307 -80 l 446 -80 "},",":{"x_min":123,"x_max":262,"ha":385,"o":"m 262 0 q 226 -142 262 -88 q 123 -196 191 -196 l 123 -131 q 191 0 191 -131 l 123 0 l 123 139 l 262 139 l 262 0 "},"d":{"x_min":49,"x_max":677,"ha":772,"o":"m 550 206 l 550 548 q 360 636 467 636 q 229 565 278 636 q 180 353 180 494 q 226 151 180 220 q 355 83 273 83 q 550 206 462 83 m 550 85 q 344 -17 464 -17 q 126 83 203 -17 q 49 354 49 183 q 135 633 49 530 q 352 736 221 736 q 550 664 469 736 l 550 994 l 677 994 l 677 0 l 550 0 l 550 85 "},"\"":{"x_min":57,"x_max":435,"ha":493,"o":"m 435 831 l 404 641 l 329 641 l 296 831 l 296 994 l 435 994 l 435 831 m 196 831 l 165 641 l 90 641 l 57 831 l 57 994 l 196 994 l 196 831 "},"˙":{"x_min":168,"x_max":293,"ha":463,"o":"m 293 849 l 168 849 l 168 988 l 293 988 l 293 849 "},"″":{"x_min":58.328125,"x_max":442.84375,"ha":463,"o":"m 248 1011 l 140 736 l 58 736 l 107 1011 l 248 1011 m 442 1011 l 335 736 l 252 736 l 301 1011 l 442 1011 "},"„":{"x_min":98,"x_max":447,"ha":545,"o":"m 447 0 q 411 -142 447 -88 q 308 -196 376 -196 l 308 -131 q 376 0 376 -131 l 308 0 l 308 139 l 447 139 l 447 0 m 237 0 q 201 -142 237 -88 q 98 -196 166 -196 l 98 -131 q 166 0 166 -131 l 98 0 l 98 139 l 237 139 l 237 0 "},"ľ":{"x_min":94,"x_max":404,"ha":404,"o":"m 222 0 l 94 0 l 94 994 l 222 994 l 222 0 m 404 855 q 369 713 404 766 q 266 660 334 660 l 266 725 q 333 856 333 725 l 266 856 l 266 994 l 404 994 l 404 855 "},"Į":{"x_min":49,"x_max":267.515625,"ha":386,"o":"m 145 0 l 128 0 l 128 994 l 260 994 l 260 0 l 239 0 q 159 -133 159 -65 q 221 -192 159 -192 q 267 -185 243 -192 l 267 -278 q 190 -290 225 -290 q 87 -256 125 -290 q 49 -167 49 -223 q 145 0 49 -78 "},"ė":{"x_min":49,"x_max":723.796875,"ha":773,"o":"m 400 -17 q 145 82 241 -17 q 49 359 49 181 q 142 635 49 535 q 386 736 235 736 q 631 637 540 736 q 723 359 723 539 l 723 329 l 186 329 q 247 143 186 203 q 399 83 309 83 q 522 117 467 83 q 577 215 577 151 l 710 215 q 609 43 695 103 q 400 -17 523 -17 m 589 429 q 519 584 573 532 q 386 636 464 636 q 254 584 309 636 q 184 429 199 533 l 589 429 m 449 849 l 324 849 l 324 988 l 449 988 l 449 849 "},"Ţ":{"x_min":31,"x_max":818,"ha":849,"o":"m 818 876 l 489 876 l 489 0 l 470 0 l 470 -51 q 584 -160 584 -66 q 378 -291 584 -291 q 308 -291 347 -291 l 308 -209 q 382 -214 346 -214 q 470 -158 470 -214 q 375 -107 470 -107 l 375 0 l 357 0 l 357 876 l 31 876 l 31 994 l 818 994 l 818 876 "},"˞":{"x_min":-15.59375,"x_max":393.34375,"ha":463,"o":"m 393 282 q 244 244 313 244 q 142 281 179 244 q 90 429 106 319 l 0 411 l -15 502 l 173 540 l 189 451 q 208 382 198 400 q 257 354 223 354 q 273 355 265 354 q 367 395 328 364 l 373 395 l 393 282 "}," ":{"x_min":0,"x_max":0,"ha":278,"o":"m 0 0 l 0 0 "},"Ŷ":{"x_min":6.375,"x_max":919.1875,"ha":926,"o":"m 919 994 l 528 421 l 528 0 l 397 0 l 397 421 l 6 994 l 166 994 l 463 536 l 759 994 l 919 994 m 677 1056 l 539 1056 l 462 1171 l 386 1056 l 247 1056 l 397 1247 l 527 1247 l 677 1056 "},"ŝ":{"x_min":49,"x_max":639,"ha":693,"o":"m 347 -17 q 49 214 49 -17 l 171 214 q 348 83 171 83 q 470 115 428 83 q 512 198 512 148 q 471 267 512 247 q 303 319 430 287 q 117 390 176 351 q 59 528 59 429 q 132 677 59 618 q 328 736 205 736 q 613 534 613 736 l 485 534 q 337 636 485 636 q 229 611 272 636 q 187 540 187 587 q 219 479 187 498 q 382 429 252 461 q 575 355 512 398 q 639 210 639 313 q 559 47 639 112 q 347 -17 480 -17 m 533 821 l 395 821 l 319 936 l 242 821 l 103 821 l 254 1011 l 384 1011 l 533 821 "},"Ĉ":{"x_min":65,"x_max":931.375,"ha":1003,"o":"m 527 -17 q 190 121 316 -17 q 65 497 65 260 q 190 873 65 734 q 527 1012 316 1012 q 803 924 689 1012 q 931 693 917 836 l 795 693 q 714 843 787 787 q 528 899 640 899 q 289 794 377 899 q 201 497 201 690 q 288 200 201 304 q 525 96 375 96 q 714 152 642 96 q 795 315 786 209 l 931 315 q 806 69 917 156 q 527 -17 696 -17 m 738 1057 l 599 1057 l 523 1173 l 446 1057 l 308 1057 l 458 1248 l 588 1248 l 738 1057 "}," ":{"x_min":0,"x_max":0,"ha":1389,"o":"m 0 0 l 0 0 "},"ą":{"x_min":53,"x_max":682.5,"ha":773,"o":"m 550 188 l 550 348 l 462 348 q 184 196 184 348 q 225 112 184 141 q 335 83 265 83 q 457 111 398 83 q 550 188 516 139 m 550 73 q 298 -17 452 -17 q 122 40 191 -17 q 53 190 53 98 q 487 442 53 442 l 550 442 q 541 554 550 519 q 495 612 533 589 q 376 636 458 636 q 204 513 204 636 l 81 513 q 380 735 81 735 q 598 680 520 735 q 677 464 677 625 l 677 0 l 550 0 l 550 73 m 682 -278 q 605 -290 643 -290 q 502 -256 541 -290 q 464 -167 464 -223 q 560 0 464 -80 l 654 0 q 574 -133 574 -66 q 635 -192 574 -192 q 682 -185 657 -192 l 682 -278 "},"ⱪ":{"x_min":94,"x_max":731,"ha":759,"o":"m 689 0 l 536 0 l 302 365 l 222 286 l 222 0 l 94 0 l 94 994 l 222 994 l 222 430 l 500 719 l 661 719 l 388 451 l 689 0 m 731 109 l 731 -193 l 604 -193 l 604 109 l 731 109 "},"​":{"x_min":0,"x_max":0,"ha":0},"z":{"x_min":28,"x_max":665,"ha":694,"o":"m 665 0 l 28 0 l 28 109 l 476 611 l 54 611 l 54 720 l 643 720 l 643 611 l 194 109 l 665 109 l 665 0 "},"ⱶ":{"x_min":94,"x_max":529.21875,"ha":550,"o":"m 529 321 l 222 321 l 222 0 l 94 0 l 94 720 l 222 720 l 222 421 l 529 421 l 529 321 "},"Ř":{"x_min":111,"x_max":939.578125,"ha":1003,"o":"m 939 0 l 796 0 l 703 265 q 620 380 678 335 q 485 425 561 425 l 242 425 l 242 0 l 111 0 l 111 994 l 551 994 q 739 971 666 994 q 858 877 812 949 q 905 715 905 805 q 845 543 905 612 q 682 452 785 473 l 682 450 q 839 270 785 416 l 939 0 m 242 543 l 535 543 q 713 581 658 543 q 769 715 769 620 q 556 885 769 885 l 242 885 l 242 543 m 655 1247 l 505 1057 l 375 1057 l 225 1247 l 363 1247 l 440 1132 l 517 1247 l 655 1247 "},"Ň":{"x_min":111,"x_max":891,"ha":1002,"o":"m 891 0 l 756 0 l 236 784 l 236 0 l 111 0 l 111 994 l 245 994 l 766 209 l 766 994 l 891 994 l 891 0 m 699 1248 l 549 1058 l 419 1058 l 269 1248 l 408 1248 l 484 1133 l 561 1248 l 699 1248 "},"ĩ":{"x_min":-68,"x_max":387,"ha":318,"o":"m 223 -1 l 95 -1 l 95 719 l 223 719 l 223 -1 m 387 995 q 347 881 387 922 q 248 840 308 840 q 151 868 213 840 q 69 897 90 897 q 20 838 27 897 l -68 838 q -28 952 -68 911 q 69 994 10 994 q 166 965 105 994 q 248 937 228 937 q 297 995 291 937 l 387 995 "},"ŀ":{"x_min":45,"x_max":472,"ha":512,"o":"m 173 0 l 45 0 l 45 994 l 173 994 l 173 0 m 472 419 l 333 419 l 333 558 l 472 558 l 472 419 "},"~":{"x_min":60,"x_max":753,"ha":811,"o":"m 753 856 q 565 775 681 775 q 389 820 492 775 q 234 866 285 866 q 60 773 147 866 l 60 912 q 247 994 131 994 q 423 948 320 994 q 578 903 527 903 q 753 995 665 903 l 753 856 "},"Ċ":{"x_min":65,"x_max":931.859375,"ha":1003,"o":"m 527 -17 q 190 121 316 -17 q 65 497 65 260 q 190 873 65 734 q 527 1012 316 1012 q 803 924 689 1012 q 931 693 917 836 l 796 693 q 714 843 788 787 q 528 899 640 899 q 289 794 377 899 q 201 497 201 690 q 288 200 201 304 q 526 96 376 96 q 714 152 642 96 q 796 315 786 209 l 931 315 q 807 69 917 156 q 527 -17 696 -17 m 586 1085 l 461 1085 l 461 1224 l 586 1224 l 586 1085 "},"[":{"x_min":94,"x_max":363.734375,"ha":385,"o":"m 363 -277 l 94 -277 l 94 994 l 363 994 l 363 893 l 222 893 l 222 -175 l 363 -175 l 363 -277 "},"Ⱨ":{"x_min":111,"x_max":1010,"ha":1039,"o":"m 1010 -277 l 892 -277 l 892 0 l 759 0 l 759 468 l 242 468 l 242 0 l 111 0 l 111 994 l 242 994 l 242 586 l 759 586 l 759 994 l 891 994 l 891 118 l 1010 118 l 1010 -277 "},"‖":{"x_min":26,"x_max":335,"ha":361,"o":"m 132 -292 l 26 -292 l 26 994 l 132 994 l 132 -292 m 335 -292 l 229 -292 l 229 994 l 335 994 l 335 -292 "},"‌":{"x_min":-24,"x_max":25,"ha":1,"o":"m 25 1187 l 25 -277 l -24 -277 l -24 1187 l 25 1187 "},"˱":{"x_min":136,"x_max":327,"ha":463,"o":"m 327 -284 l 136 -162 l 136 -126 l 327 -4 l 327 -81 l 211 -144 l 327 -207 l 327 -284 "},"˨":{"x_min":101.546875,"x_max":430,"ha":532,"o":"m 430 0 l 324 0 l 324 222 l 101 222 l 101 328 l 324 328 l 324 994 l 430 994 l 430 0 "},"%":{"x_min":87,"x_max":1147,"ha":1234,"o":"m 312 1011 q 475 940 412 1011 q 539 747 539 869 q 475 553 539 624 q 312 483 412 483 q 149 553 212 483 q 87 747 87 624 q 149 940 87 869 q 312 1011 212 1011 m 312 566 q 430 747 430 566 q 312 928 430 928 q 196 747 196 928 q 312 566 196 566 m 936 994 l 394 0 l 295 0 l 838 994 l 936 994 m 920 511 q 1083 440 1020 511 q 1147 247 1147 369 q 1083 53 1147 124 q 920 -17 1020 -17 q 757 53 820 -17 q 695 247 695 123 q 757 440 695 370 q 920 511 820 511 m 920 66 q 1038 247 1038 66 q 920 428 1038 428 q 804 247 804 428 q 920 66 804 66 "},"P":{"x_min":111,"x_max":865,"ha":926,"o":"m 111 994 l 481 994 q 686 971 603 994 q 816 872 768 948 q 865 703 865 797 q 769 475 865 553 q 492 397 674 397 l 242 397 l 242 0 l 111 0 l 111 994 m 242 515 l 494 515 q 675 562 621 515 q 729 699 729 610 q 699 805 729 759 q 623 863 669 851 q 491 876 577 876 l 242 876 l 242 515 "},"_":{"x_min":-8,"x_max":775,"ha":767,"o":"m 775 -218 l -8 -218 l -8 -149 l 775 -149 l 775 -218 "},"Ŕ":{"x_min":111,"x_max":939.578125,"ha":1003,"o":"m 939 0 l 796 0 l 703 265 q 620 380 678 335 q 485 425 561 425 l 242 425 l 242 0 l 111 0 l 111 994 l 551 994 q 739 971 666 994 q 858 877 812 949 q 905 715 905 805 q 845 543 905 612 q 682 452 785 473 l 682 450 q 839 270 785 416 l 939 0 m 242 543 l 535 543 q 713 581 658 543 q 769 715 769 620 q 556 885 769 885 l 242 885 l 242 543 m 594 1248 l 444 1057 l 344 1057 l 434 1248 l 594 1248 "},"‚":{"x_min":123,"x_max":262,"ha":385,"o":"m 262 0 q 226 -142 262 -88 q 123 -196 191 -196 l 123 -131 q 191 0 191 -131 l 123 0 l 123 139 l 262 139 l 262 0 "},"ˋ":{"x_min":58.328125,"x_max":308.5625,"ha":463,"o":"m 308 821 l 208 821 l 58 1012 l 218 1012 l 308 821 "},"˃":{"x_min":77,"x_max":735,"ha":812,"o":"m 735 433 l 77 153 l 77 275 l 599 490 l 77 705 l 77 826 l 735 547 l 735 433 "},"ğ":{"x_min":49,"x_max":677,"ha":772,"o":"m 677 55 q 364 -292 677 -292 q 150 -232 228 -292 q 72 -74 72 -173 l 204 -74 q 362 -192 204 -192 q 501 -143 452 -192 q 550 49 550 -93 l 550 85 q 344 -17 464 -17 q 126 83 203 -17 q 49 353 49 183 q 135 632 49 530 q 352 735 221 735 q 550 663 469 735 l 550 719 l 677 719 l 677 55 m 550 206 l 550 548 q 360 636 467 636 q 229 565 278 636 q 180 353 180 494 q 226 151 180 220 q 355 83 273 83 q 550 206 462 83 m 586 1002 q 523 873 578 919 q 383 827 468 827 q 243 873 298 827 q 189 1002 189 919 l 268 1002 q 385 911 284 911 q 503 1002 484 911 l 586 1002 "},"Ū":{"x_min":111,"x_max":891,"ha":1002,"o":"m 500 -18 q 242 49 327 -18 q 133 207 156 116 q 111 418 111 298 l 111 994 l 242 994 l 242 420 q 308 162 242 224 q 500 101 374 101 q 693 162 627 101 q 759 420 759 224 l 759 994 l 891 994 l 891 418 q 847 152 891 237 q 718 24 804 66 q 500 -18 631 -18 m 714 1103 l 291 1103 l 291 1204 l 714 1204 l 714 1103 "},"♯":{"x_min":71.359375,"x_max":701.640625,"ha":772,"o":"m 701 282 l 566 221 l 566 0 l 508 0 l 508 195 l 265 86 l 265 -143 l 207 -143 l 207 60 l 71 0 l 71 113 l 207 174 l 207 509 l 71 448 l 71 562 l 207 623 l 207 845 l 265 845 l 265 649 l 508 758 l 508 994 l 566 994 l 566 784 l 701 845 l 701 731 l 566 670 l 566 335 l 701 396 l 701 282 m 508 309 l 508 644 l 265 535 l 265 200 l 508 309 "},"Œ":{"x_min":65,"x_max":1315,"ha":1389,"o":"m 1315 0 l 758 0 l 758 130 q 637 22 714 62 q 480 -18 560 -18 q 175 119 286 -18 q 65 496 65 256 q 175 873 65 736 q 480 1011 286 1011 q 637 970 560 1011 q 758 863 714 930 l 758 994 l 1292 994 l 1292 876 l 890 876 l 890 572 l 1253 572 l 1253 454 l 890 454 l 890 118 l 1315 118 l 1315 0 m 479 95 q 758 496 758 95 q 481 898 758 898 q 275 794 350 898 q 201 496 201 691 q 274 198 201 302 q 479 95 348 95 "},"ʵ":{"x_min":6.875,"x_max":352,"ha":318,"o":"m 352 138 q 294 134 331 134 q 192 183 219 134 q 171 301 171 220 l 171 395 q 45 317 116 317 q 6 321 29 317 l 6 406 q 59 401 25 401 q 171 469 124 401 l 171 810 l 257 810 l 257 303 q 261 240 257 254 q 304 205 269 205 q 352 211 325 205 l 352 138 "},"Ą":{"x_min":-1.296875,"x_max":927.9375,"ha":927,"o":"m 625 406 l 450 867 l 283 406 l 625 406 m 927 0 l 779 0 l 663 302 l 247 302 l 137 0 l -1 0 l 380 994 l 522 994 l 927 0 m 922 -278 q 845 -290 883 -290 q 742 -256 781 -290 q 704 -167 704 -223 q 800 0 704 -80 l 894 0 q 814 -133 814 -67 q 876 -192 814 -192 q 922 -185 898 -192 l 922 -278 "},"˵":{"x_min":58.328125,"x_max":537.78125,"ha":604,"o":"m 537 180 l 437 180 l 287 371 l 447 371 l 537 180 m 308 180 l 208 180 l 58 371 l 218 371 l 308 180 "},"ʽ":{"x_min":85,"x_max":224.5,"ha":309,"o":"m 224 660 q 120 713 155 660 q 85 855 85 766 l 85 994 l 224 994 l 224 856 l 156 856 q 224 725 156 725 l 224 660 "},"T":{"x_min":31,"x_max":818,"ha":849,"o":"m 818 876 l 489 876 l 489 0 l 357 0 l 357 876 l 31 876 l 31 994 l 818 994 l 818 876 "},"š":{"x_min":49,"x_max":639,"ha":693,"o":"m 347 -17 q 49 214 49 -17 l 171 214 q 348 83 171 83 q 470 115 428 83 q 512 198 512 148 q 471 267 512 247 q 303 319 430 287 q 117 390 176 351 q 59 528 59 429 q 132 677 59 618 q 328 736 205 736 q 613 534 613 736 l 485 534 q 337 636 485 636 q 229 611 272 636 q 187 540 187 587 q 219 479 187 498 q 382 429 252 461 q 575 355 512 398 q 639 210 639 313 q 559 47 639 112 q 347 -17 480 -17 m 533 1011 l 384 821 l 254 821 l 103 1010 l 242 1010 l 319 896 l 395 1011 l 533 1011 "},"j":{"x_min":-49.09375,"x_max":222,"ha":316,"o":"m 222 -38 q 173 -241 222 -192 q 36 -290 124 -290 q -49 -283 -15 -290 l -49 -174 q 22 -184 -12 -184 q 79 -154 64 -184 q 94 -35 94 -124 l 94 720 l 222 720 l 222 -38 m 222 856 l 94 856 l 94 994 l 222 994 l 222 856 "},"1":{"x_min":153.59375,"x_max":520,"ha":772,"o":"m 520 0 l 393 0 l 393 782 q 153 731 315 731 l 153 831 q 422 1011 387 831 l 520 1011 l 520 0 "}," ":{"x_min":0,"x_max":0,"ha":309},"›":{"x_min":86.125,"x_max":401.46875,"ha":463,"o":"m 401 358 l 185 49 l 86 49 l 262 358 l 86 668 l 185 668 l 401 358 "},"ʶ":{"x_min":61,"x_max":461.953125,"ha":496,"o":"m 461 810 l 413 679 q 338 601 391 618 l 338 600 q 445 467 445 578 q 274 328 445 328 l 61 328 l 61 810 l 146 810 l 146 615 l 219 615 q 285 636 254 615 q 327 689 316 657 l 370 810 l 461 810 m 357 467 q 243 547 357 547 l 146 547 l 146 395 l 253 395 q 357 467 357 395 "},"<":{"x_min":77,"x_max":735,"ha":812,"o":"m 735 153 l 77 433 l 77 547 l 735 826 l 735 705 l 212 490 l 735 275 l 735 153 "},"t":{"x_min":24,"x_max":374,"ha":386,"o":"m 374 0 q 282 -9 331 -9 q 167 19 203 -9 q 121 91 130 47 q 113 211 113 135 l 113 620 l 24 620 l 24 720 l 113 720 l 113 899 l 241 899 l 241 720 l 357 720 l 357 620 l 241 620 l 241 204 q 259 110 241 130 q 310 90 278 90 q 374 96 343 90 l 374 0 "},"˕":{"x_min":104,"x_max":359,"ha":463,"o":"m 359 303 l 275 303 l 275 136 l 187 136 l 187 303 l 104 303 l 104 391 l 359 391 l 359 303 "},"ĉ":{"x_min":49,"x_max":675.921875,"ha":694,"o":"m 385 -17 q 140 81 232 -17 q 49 359 49 180 q 140 637 49 539 q 385 736 232 736 q 582 676 503 736 q 675 504 661 616 l 543 504 q 497 602 543 568 q 386 636 451 636 q 237 566 294 636 q 180 359 180 497 q 237 152 180 222 q 386 83 294 83 q 497 117 451 83 q 543 215 543 151 l 675 215 q 582 42 661 102 q 385 -17 503 -17 m 582 821 l 444 821 l 367 936 l 290 821 l 152 821 l 302 1011 l 432 1011 l 582 821 "},"꜠":{"x_min":79,"x_max":751.015625,"ha":830,"o":"m 371 779 l 371 1001 l 180 1001 l 180 779 l 79 779 l 79 1102 l 751 1102 l 751 1001 l 472 1001 l 472 779 l 371 779 "},"ī":{"x_min":-53,"x_max":370,"ha":317,"o":"m 222 0 l 94 0 l 94 720 l 222 720 l 222 0 m 370 867 l -53 867 l -53 968 l 370 968 l 370 867 "},"︡":{"x_min":-117,"x_max":420.796875,"ha":0,"o":"m 420 1001 l 310 1001 q -117 1173 186 1173 l -117 1259 q 420 1001 258 1259 "},"&":{"x_min":60,"x_max":856.125,"ha":927,"o":"m 856 66 l 756 -17 l 671 92 q 375 -17 552 -17 q 149 67 238 -17 q 60 273 60 152 q 117 434 60 365 q 290 569 174 503 q 185 788 185 705 q 255 947 185 883 q 432 1011 325 1011 q 597 948 532 1011 q 663 798 663 886 q 614 662 663 720 q 468 548 566 605 l 668 299 q 699 468 699 374 l 829 468 q 754 193 829 311 l 856 66 m 402 629 q 505 705 472 667 q 538 796 538 742 q 504 879 538 847 q 425 911 470 911 q 343 880 376 911 q 310 801 310 850 q 371 669 310 746 l 402 629 m 599 183 l 356 486 q 231 390 270 435 q 192 282 192 345 q 244 149 192 206 q 376 92 297 92 q 599 183 513 92 "},"Ď":{"x_min":111,"x_max":933,"ha":1003,"o":"m 111 994 l 426 994 q 933 502 933 994 q 426 0 933 0 l 111 0 l 111 994 m 242 118 l 423 118 q 718 218 639 118 q 797 502 797 319 q 718 778 797 680 q 423 876 640 876 l 242 876 l 242 118 m 635 1247 l 485 1057 l 355 1057 l 205 1247 l 344 1247 l 420 1132 l 497 1247 l 635 1247 "},"˼":{"x_min":104.171875,"x_max":359,"ha":463,"o":"m 359 0 l 104 0 l 104 88 l 271 88 l 271 254 l 359 254 l 359 0 "},"˝":{"x_min":106.46875,"x_max":585.9375,"ha":604,"o":"m 585 1012 l 436 821 l 335 821 l 425 1012 l 585 1012 m 356 1012 l 206 821 l 106 821 l 196 1012 l 356 1012 "},"I":{"x_min":127,"x_max":259,"ha":385,"o":"m 259 0 l 127 0 l 127 994 l 259 994 l 259 0 "},"G":{"x_min":65,"x_max":992,"ha":1081,"o":"m 545 -17 q 198 123 331 -17 q 65 497 65 264 q 196 871 65 731 q 542 1012 328 1012 q 840 925 721 1012 q 974 693 960 838 l 837 693 q 750 844 829 789 q 543 899 671 899 q 294 793 388 899 q 201 497 201 688 q 296 201 201 306 q 544 96 391 96 q 864 237 759 96 l 864 388 l 601 388 l 601 507 l 992 507 l 992 0 l 898 0 l 864 104 q 545 -17 762 -17 "},"ʲ":{"x_min":7,"x_max":189,"ha":250,"o":"m 189 906 l 103 906 l 103 994 l 189 994 l 189 906 m 189 302 q 168 183 189 219 q 64 134 140 134 q 7 138 27 134 l 7 211 q 54 205 30 205 q 98 240 90 205 q 103 304 103 255 l 103 810 l 189 810 l 189 302 "},"`":{"x_min":58.328125,"x_max":308.5625,"ha":463,"o":"m 308 821 l 208 821 l 58 1012 l 218 1012 l 308 821 "},"ˣ":{"x_min":6.78125,"x_max":459.796875,"ha":467,"o":"m 459 328 l 353 328 l 233 515 l 113 328 l 6 328 l 185 578 l 21 810 l 127 810 l 233 641 l 339 810 l 445 810 l 281 579 l 459 328 "},"ŏ":{"x_min":49,"x_max":724,"ha":773,"o":"m 386 736 q 632 637 540 736 q 724 359 724 539 q 632 81 724 180 q 386 -17 540 -17 q 140 81 232 -17 q 49 359 49 180 q 140 637 49 539 q 386 736 232 736 m 386 83 q 534 152 477 83 q 592 359 592 222 q 534 566 592 497 q 386 636 477 636 q 237 566 294 636 q 180 359 180 497 q 237 152 180 222 q 386 83 294 83 m 587 1002 q 524 872 579 918 q 384 827 469 827 q 243 873 298 827 q 189 1002 189 919 l 269 1002 q 386 911 285 911 q 504 1002 485 911 l 587 1002 "},"˶":{"x_min":106.46875,"x_max":585.9375,"ha":604,"o":"m 585 371 l 436 180 l 335 180 l 425 371 l 585 371 m 356 371 l 206 180 l 106 180 l 196 371 l 356 371 "},"ſ":{"x_min":94,"x_max":391.546875,"ha":347,"o":"m 391 892 q 313 899 353 899 q 244 872 266 899 q 222 782 222 846 l 222 0 l 94 0 l 94 783 q 295 1012 94 1012 q 391 1003 356 1012 l 391 892 "},"˸":{"x_min":123,"x_max":262,"ha":385,"o":"m 262 855 l 123 855 l 123 994 l 262 994 l 262 855 m 262 274 l 123 274 l 123 413 l 262 413 l 262 274 "},"ź":{"x_min":28,"x_max":665,"ha":694,"o":"m 665 0 l 28 0 l 28 109 l 476 611 l 54 611 l 54 720 l 643 720 l 643 611 l 194 109 l 665 109 l 665 0 m 518 1012 l 368 821 l 268 821 l 358 1012 l 518 1012 "},"ű":{"x_min":92,"x_max":681.390625,"ha":773,"o":"m 551 91 q 335 -17 455 -17 q 92 248 92 -17 l 92 719 l 220 719 l 220 254 q 251 127 220 166 q 354 89 282 89 q 551 204 461 89 l 551 720 l 678 720 l 678 0 l 551 0 l 551 91 m 681 1012 l 531 821 l 431 821 l 521 1012 l 681 1012 m 452 1012 l 302 821 l 201 821 l 292 1012 l 452 1012 "},"ń":{"x_min":94,"x_max":681,"ha":773,"o":"m 222 628 q 437 736 317 736 q 681 470 681 736 l 681 0 l 553 0 l 553 465 q 521 592 553 553 q 417 631 489 631 q 222 515 319 631 l 222 0 l 94 0 l 94 720 l 222 720 l 222 628 m 557 1012 l 407 821 l 306 821 l 397 1012 l 557 1012 "},"˲":{"x_min":136,"x_max":327,"ha":463,"o":"m 327 -162 l 136 -284 l 136 -207 l 251 -144 l 136 -81 l 136 -4 l 327 -126 l 327 -162 "},";":{"x_min":123,"x_max":262,"ha":385,"o":"m 262 0 q 226 -142 262 -88 q 123 -196 191 -196 l 123 -131 q 191 0 191 -131 l 123 0 l 123 139 l 262 139 l 262 0 m 262 581 l 123 581 l 123 720 l 262 720 l 262 581 "}," ":{"x_min":0,"x_max":0,"ha":347,"o":"m 0 0 l 0 0 "},"Ġ":{"x_min":65,"x_max":992,"ha":1081,"o":"m 545 -17 q 198 123 331 -17 q 65 497 65 264 q 196 871 65 731 q 542 1012 328 1012 q 840 925 721 1012 q 974 693 960 838 l 837 693 q 750 844 829 789 q 543 899 671 899 q 294 793 388 899 q 201 497 201 688 q 296 201 201 306 q 544 96 391 96 q 864 237 759 96 l 864 388 l 601 388 l 601 507 l 992 507 l 992 0 l 898 0 l 864 104 q 545 -17 762 -17 m 608 1087 l 483 1087 l 483 1226 l 608 1226 l 608 1087 "},"˧":{"x_min":101.546875,"x_max":430,"ha":532,"o":"m 430 0 l 324 0 l 324 444 l 101 444 l 101 550 l 324 550 l 324 994 l 430 994 l 430 0 "},"6":{"x_min":62,"x_max":714,"ha":772,"o":"m 196 536 q 417 644 290 644 q 628 554 542 644 q 714 323 714 463 q 628 82 714 181 q 402 -17 543 -17 q 151 107 241 -17 q 62 465 62 231 q 413 1011 62 1011 q 602 948 525 1011 q 697 764 680 886 l 565 764 q 404 911 548 911 q 254 814 311 911 q 196 536 196 717 m 192 437 q 248 174 192 266 q 399 83 304 83 q 532 149 482 83 q 582 315 582 216 q 531 480 582 415 q 396 545 481 545 q 192 437 292 545 "},"‴":{"x_min":-33.90625,"x_max":496.421875,"ha":463,"o":"m 156 1011 l 48 736 l -33 736 l 14 1011 l 156 1011 m 326 1011 l 217 736 l 135 736 l 184 1011 l 326 1011 m 496 1011 l 387 736 l 305 736 l 354 1011 l 496 1011 "},"n":{"x_min":94,"x_max":681,"ha":773,"o":"m 222 628 q 437 736 317 736 q 681 470 681 736 l 681 0 l 553 0 l 553 465 q 521 592 553 553 q 417 631 489 631 q 222 515 319 631 l 222 0 l 94 0 l 94 720 l 222 720 l 222 628 "},"ģ":{"x_min":49,"x_max":677,"ha":772,"o":"m 677 55 q 364 -292 677 -292 q 150 -232 228 -292 q 72 -74 72 -173 l 204 -74 q 362 -192 204 -192 q 501 -143 452 -192 q 550 49 550 -93 l 550 85 q 344 -17 465 -17 q 126 83 203 -17 q 49 353 49 183 q 135 632 49 530 q 353 735 222 735 q 550 663 469 735 l 550 719 l 677 719 l 677 55 m 550 206 l 550 548 q 360 636 467 636 q 229 565 278 636 q 180 353 180 494 q 226 151 180 220 q 355 83 273 83 q 550 206 462 83 m 419 821 l 281 821 l 281 960 q 315 1102 281 1048 q 419 1156 350 1156 l 419 1091 q 352 960 352 1091 l 419 960 l 419 821 "},"ʹ":{"x_min":155.296875,"x_max":345.859375,"ha":463,"o":"m 345 1011 l 237 736 l 155 736 l 204 1011 l 345 1011 "},"p":{"x_min":94,"x_max":723,"ha":772,"o":"m 222 633 q 427 735 307 735 q 645 635 568 735 q 723 365 723 535 q 636 85 723 188 q 418 -17 550 -17 q 222 55 302 -17 l 222 -277 l 94 -277 l 94 719 l 222 719 l 222 633 m 222 170 q 410 83 304 83 q 542 153 493 83 q 591 365 591 224 q 544 567 591 498 q 416 636 498 636 q 222 512 309 636 l 222 170 "},"Ĝ":{"x_min":65,"x_max":992,"ha":1081,"o":"m 545 -17 q 198 123 331 -17 q 65 497 65 264 q 196 871 65 731 q 542 1012 328 1012 q 840 925 721 1012 q 974 693 960 838 l 837 693 q 750 844 829 789 q 543 899 671 899 q 294 793 388 899 q 201 497 201 688 q 296 201 201 306 q 544 96 391 96 q 864 237 759 96 l 864 388 l 601 388 l 601 507 l 992 507 l 992 0 l 898 0 l 864 104 q 545 -17 762 -17 m 760 1059 l 622 1059 l 545 1174 l 469 1059 l 330 1059 l 480 1250 l 611 1250 l 760 1059 "},"‡":{"x_min":54,"x_max":718,"ha":772,"o":"m 718 6 l 450 6 l 450 -292 l 322 -292 l 322 6 l 54 6 l 54 115 l 322 115 l 322 587 l 54 587 l 54 696 l 322 696 l 322 994 l 450 994 l 450 696 l 717 696 l 717 587 l 450 587 l 450 115 l 718 115 l 718 6 "},"ň":{"x_min":94,"x_max":681,"ha":773,"o":"m 222 628 q 437 736 317 736 q 681 470 681 736 l 681 0 l 553 0 l 553 465 q 521 592 553 553 q 417 631 489 631 q 222 515 319 631 l 222 0 l 94 0 l 94 720 l 222 720 l 222 628 m 599 1011 l 449 821 l 318 821 l 168 1011 l 306 1011 l 383 896 l 460 1011 l 599 1011 "},"ę":{"x_min":49,"x_max":723.796875,"ha":773,"o":"m 400 -17 q 145 82 241 -17 q 49 359 49 181 q 142 635 49 535 q 386 735 235 735 q 631 637 540 735 q 723 359 723 539 l 723 329 l 186 329 q 247 143 186 203 q 399 83 309 83 q 522 117 467 83 q 577 215 577 151 l 710 215 q 594 25 696 103 q 489 -133 489 -57 q 551 -192 489 -192 q 597 -185 572 -192 l 597 -278 q 518 -290 563 -290 q 417 -256 455 -290 q 379 -167 379 -222 q 460 -12 379 -86 q 400 -17 441 -17 m 589 429 q 519 584 573 532 q 386 636 465 636 q 254 584 309 636 q 184 429 199 533 l 589 429 "},"S":{"x_min":64.796875,"x_max":854,"ha":926,"o":"m 484 -17 q 169 77 273 -17 q 64 319 64 171 l 189 319 q 281 155 199 208 q 480 102 364 102 q 658 147 591 102 q 726 270 726 192 q 656 389 726 352 q 415 463 586 427 q 171 564 245 499 q 97 735 97 628 q 193 933 97 856 q 451 1011 290 1011 q 723 933 620 1011 q 827 713 827 855 l 702 713 q 455 893 682 893 q 285 851 345 893 q 225 741 225 810 q 273 648 225 679 q 454 588 321 617 q 664 530 587 558 q 798 441 742 501 q 854 280 854 381 q 751 67 854 152 q 484 -17 649 -17 "},"Ⱬ":{"x_min":25.296875,"x_max":891.703125,"ha":920,"o":"m 811 0 l 25 0 l 25 123 l 643 876 l 82 876 l 82 994 l 794 994 l 794 870 l 176 118 l 811 118 l 811 0 m 774 118 l 891 118 l 891 -277 l 774 -277 l 774 118 "},"/":{"x_min":0,"x_max":385.875,"ha":386,"o":"m 385 994 l 98 0 l 0 0 l 287 994 l 385 994 "},"į":{"x_min":14,"x_max":232.515625,"ha":317,"o":"m 223 856 l 95 856 l 95 994 l 223 994 l 223 856 m 110 0 l 95 0 l 95 720 l 223 720 l 223 0 l 204 0 q 124 -133 124 -66 q 186 -192 124 -192 q 232 -185 208 -192 l 232 -278 q 155 -290 190 -290 q 52 -256 90 -290 q 14 -167 14 -223 q 110 0 14 -78 "},"ⱡ":{"x_min":14,"x_max":384,"ha":398,"o":"m 263 0 l 135 0 l 135 328 l 14 328 l 14 417 l 135 417 l 135 518 l 14 518 l 14 607 l 135 607 l 135 994 l 263 994 l 263 607 l 384 607 l 384 518 l 263 518 l 263 417 l 384 417 l 384 328 l 263 328 l 263 0 "},"ˑ":{"x_min":123.421875,"x_max":262.453125,"ha":386,"o":"m 262 448 l 201 309 l 184 309 l 123 448 l 262 448 "},"Ŧ":{"x_min":31,"x_max":818,"ha":849,"o":"m 489 507 l 489 0 l 357 0 l 357 507 l 92 507 l 92 596 l 357 596 l 357 876 l 31 876 l 31 994 l 818 994 l 818 876 l 489 876 l 489 596 l 753 596 l 753 507 l 489 507 "},"y":{"x_min":18.390625,"x_max":676.21875,"ha":694,"o":"m 135 -174 q 290 0 229 -174 l 18 719 l 156 719 l 347 156 l 537 719 l 676 719 l 404 0 q 337 -159 364 -103 q 265 -253 310 -215 q 156 -292 221 -292 q 74 -282 108 -292 l 74 -164 q 135 -174 103 -174 "},"ⱥ":{"x_min":53,"x_max":677,"ha":772,"o":"m 550 189 l 550 349 l 462 349 q 184 197 184 349 q 225 112 184 142 q 335 83 265 83 q 457 111 398 83 q 550 189 516 140 m 550 73 q 298 -17 452 -17 q 122 41 191 -17 q 53 190 53 99 q 487 443 53 443 l 550 443 q 541 555 550 520 q 495 613 533 590 q 376 636 458 636 q 204 514 204 636 l 81 514 q 380 736 81 736 q 598 681 520 736 q 677 465 677 626 l 677 0 l 550 0 l 550 73 m 512 889 l 583 869 l 294 -169 l 223 -149 l 512 889 "},"ⱨ":{"x_min":94,"x_max":786.796875,"ha":816,"o":"m 222 628 q 437 736 317 736 q 681 470 681 736 l 681 0 l 552 0 l 552 465 q 520 592 552 553 q 417 631 489 631 q 222 515 319 631 l 222 0 l 94 0 l 94 994 l 222 994 l 222 628 m 786 109 l 786 -193 l 659 -193 l 659 109 l 786 109 "},"‗":{"x_min":-8,"x_max":703,"ha":695,"o":"m 703 -138 l -8 -138 l -8 -68 l 703 -68 l 703 -138 m 703 -277 l -8 -277 l -8 -207 l 703 -207 l 703 -277 "},"ˊ":{"x_min":153.9375,"x_max":404.1875,"ha":463,"o":"m 404 1012 l 254 821 l 153 821 l 244 1012 l 404 1012 "},"g":{"x_min":49,"x_max":677,"ha":772,"o":"m 677 55 q 364 -292 677 -292 q 150 -232 228 -292 q 72 -74 72 -173 l 204 -74 q 362 -192 204 -192 q 501 -143 452 -192 q 550 49 550 -93 l 550 85 q 344 -17 464 -17 q 126 83 203 -17 q 49 353 49 183 q 135 632 49 530 q 352 735 221 735 q 550 663 469 735 l 550 719 l 677 719 l 677 55 m 550 206 l 550 548 q 360 636 467 636 q 229 565 278 636 q 180 353 180 494 q 226 151 180 220 q 355 83 273 83 q 550 206 462 83 "},"ĸ":{"x_min":94,"x_max":688.578125,"ha":694,"o":"m 688 0 l 536 0 l 302 365 l 222 286 l 222 0 l 94 0 l 94 720 l 222 720 l 222 430 l 499 720 l 660 720 l 388 451 l 688 0 "},"ʳ":{"x_min":61,"x_max":311.125,"ha":318,"o":"m 311 732 q 258 738 292 738 q 147 669 193 738 l 147 328 l 61 328 l 61 810 l 147 810 l 147 743 q 271 821 201 821 q 311 817 291 821 l 311 732 "},"–":{"x_min":-8,"x_max":415,"ha":407,"o":"m 415 310 l -8 310 l -8 409 l 415 409 l 415 310 "},"J":{"x_min":37,"x_max":583,"ha":694,"o":"m 583 317 q 512 58 583 134 q 304 -18 441 -18 q 108 57 180 -18 q 37 256 37 132 l 37 283 l 169 283 q 304 101 169 101 q 413 141 375 101 q 451 310 451 181 l 451 994 l 583 994 l 583 317 "},"ŕ":{"x_min":94,"x_max":467.5,"ha":462,"o":"m 467 602 q 389 611 440 611 q 222 508 291 611 l 222 0 l 94 0 l 94 720 l 222 720 l 222 619 q 409 736 302 736 q 467 730 436 736 l 467 602 m 417 1012 l 267 821 l 167 821 l 257 1012 l 417 1012 "},"ŷ":{"x_min":18.390625,"x_max":676.21875,"ha":694,"o":"m 135 -174 q 290 0 229 -174 l 18 719 l 156 719 l 347 156 l 537 719 l 676 719 l 404 0 q 337 -159 364 -103 q 265 -253 310 -215 q 156 -292 221 -292 q 74 -282 108 -292 l 74 -164 q 135 -174 103 -174 m 562 820 l 424 820 l 347 935 l 271 820 l 133 820 l 282 1011 l 413 1011 l 562 820 "},"ˀ":{"x_min":60.796875,"x_max":480,"ha":541,"o":"m 480 753 q 437 589 480 654 q 297 504 389 518 l 297 328 l 211 328 l 211 568 l 254 568 q 362 627 326 568 q 392 753 392 676 q 253 939 392 939 q 151 850 151 939 l 60 850 q 125 967 70 926 q 254 1006 176 1006 q 425 934 365 1006 q 480 753 480 866 "},"‾":{"x_min":-8,"x_max":703,"ha":695,"o":"m 703 1099 l -8 1099 l -8 1168 l 703 1168 l 703 1099 "},"˰":{"x_min":91.546875,"x_max":372.3125,"ha":463,"o":"m 372 -239 l 295 -239 l 231 -123 l 168 -239 l 91 -239 l 214 -48 l 249 -48 l 372 -239 "},"˭":{"x_min":28,"x_max":434,"ha":462,"o":"m 434 924 l 28 924 l 28 994 l 434 994 l 434 924 m 434 785 l 28 785 l 28 855 l 434 855 l 434 785 "},"˘":{"x_min":34,"x_max":432.09375,"ha":463,"o":"m 432 1003 q 368 873 423 919 q 228 827 313 827 q 88 873 143 827 q 34 1003 34 919 l 114 1003 q 230 911 130 911 q 348 1003 329 911 l 432 1003 "},"˄":{"x_min":69.171875,"x_max":741.921875,"ha":811,"o":"m 741 161 l 620 161 l 405 683 l 190 161 l 69 161 l 348 819 l 462 819 l 741 161 "},"Ă":{"x_min":-1.484375,"x_max":927.609375,"ha":926,"o":"m 625 406 l 450 867 l 283 406 l 625 406 m 927 0 l 779 0 l 663 302 l 247 302 l 137 0 l -1 0 l 380 994 l 522 994 l 927 0 m 661 1239 q 597 1109 652 1155 q 457 1063 542 1063 q 317 1109 372 1063 q 263 1239 263 1155 l 343 1239 q 459 1147 359 1147 q 577 1239 558 1147 l 661 1239 "},"D":{"x_min":111,"x_max":933,"ha":1003,"o":"m 111 994 l 426 994 q 933 502 933 994 q 426 0 933 0 l 111 0 l 111 994 m 242 118 l 423 118 q 718 218 639 118 q 797 502 797 319 q 718 778 797 680 q 423 876 640 876 l 242 876 l 242 118 "},"ʸ":{"x_min":6.703125,"x_max":447.515625,"ha":454,"o":"m 447 811 l 265 328 q 208 201 229 232 q 99 133 164 133 q 44 139 66 133 l 44 218 q 84 212 62 212 q 189 328 149 212 l 6 810 l 99 810 l 227 433 l 354 811 l 447 811 "},"ĺ":{"x_min":47.890625,"x_max":297.953125,"ha":316,"o":"m 222 0 l 94 0 l 94 994 l 222 994 l 222 0 m 297 1248 l 148 1057 l 47 1057 l 138 1248 l 297 1248 "},"ł":{"x_min":7.875,"x_max":308.125,"ha":316,"o":"m 222 0 l 94 0 l 94 388 l 7 315 l 7 422 l 94 495 l 94 994 l 222 994 l 222 604 l 308 677 l 308 570 l 222 497 l 222 0 "},"Ł":{"x_min":5.203125,"x_max":726.09375,"ha":772,"o":"m 726 0 l 111 0 l 111 388 l 5 299 l 5 412 l 111 502 l 111 994 l 242 994 l 242 614 l 459 800 l 459 686 l 242 501 l 242 118 l 726 118 l 726 0 "}," ":{"x_min":0,"x_max":0,"ha":386,"o":"m 0 0 l 0 0 "},"˴":{"x_min":58.328125,"x_max":308.5625,"ha":463,"o":"m 308 180 l 208 180 l 58 371 l 218 371 l 308 180 "},"$":{"x_min":62.8125,"x_max":711,"ha":773,"o":"m 422 567 q 650 465 590 532 q 711 284 711 399 q 634 76 711 164 q 422 -12 557 -12 l 422 -121 l 349 -121 l 349 -17 q 62 281 62 13 l 185 281 q 349 86 200 111 l 349 465 q 75 733 75 520 q 149 926 75 853 q 349 1011 223 999 l 349 1116 l 422 1116 l 422 1002 q 687 765 663 1002 l 555 765 q 422 908 544 891 l 422 567 m 349 581 l 349 909 q 206 743 206 884 q 246 632 206 667 q 349 581 285 598 m 422 86 q 579 278 579 105 q 547 386 579 348 q 422 449 515 424 l 422 86 "},"w":{"x_min":6.78125,"x_max":995.546875,"ha":1003,"o":"m 995 720 l 779 0 l 657 0 l 501 529 l 345 0 l 223 0 l 6 720 l 148 720 l 280 171 l 442 720 l 559 720 l 722 171 l 854 720 l 995 720 "},"\\":{"x_min":0,"x_max":385.875,"ha":386,"o":"m 385 0 l 287 0 l 0 994 l 98 994 l 385 0 "},"Ŝ":{"x_min":64.796875,"x_max":854,"ha":926,"o":"m 484 -17 q 169 77 273 -17 q 64 319 64 171 l 189 319 q 281 155 199 208 q 480 102 364 102 q 658 147 591 102 q 726 270 726 192 q 656 389 726 352 q 415 463 586 427 q 171 564 245 499 q 97 735 97 628 q 193 933 97 856 q 451 1011 290 1011 q 723 933 620 1011 q 827 713 827 855 l 702 713 q 455 893 682 893 q 285 851 345 893 q 225 741 225 810 q 273 648 225 679 q 454 588 321 617 q 664 530 587 558 q 798 441 742 501 q 854 280 854 381 q 751 67 854 152 q 484 -17 649 -17 m 662 1057 l 524 1057 l 448 1172 l 371 1057 l 233 1057 l 382 1247 l 513 1247 l 662 1057 "},"C":{"x_min":65,"x_max":931.375,"ha":1003,"o":"m 527 -17 q 190 121 316 -17 q 65 497 65 260 q 190 873 65 734 q 527 1012 316 1012 q 803 924 689 1012 q 931 693 917 836 l 795 693 q 714 843 787 787 q 528 899 640 899 q 289 794 377 899 q 201 497 201 690 q 288 200 201 304 q 525 96 375 96 q 714 152 642 96 q 795 315 786 209 l 931 315 q 806 69 917 156 q 527 -17 696 -17 "},"˩":{"x_min":101.546875,"x_max":430,"ha":532,"o":"m 430 -1 l 101 -1 l 101 105 l 324 105 l 324 994 l 430 994 l 430 -1 "},"Ē":{"x_min":111,"x_max":852.234375,"ha":926,"o":"m 852 0 l 111 0 l 111 994 l 829 994 l 829 876 l 242 876 l 242 572 l 791 572 l 791 454 l 242 454 l 242 118 l 852 118 l 852 0 m 688 1103 l 265 1103 l 265 1204 l 688 1204 l 688 1103 "},"꜡":{"x_min":79,"x_max":751.015625,"ha":830,"o":"m 472 1101 l 472 880 l 751 880 l 751 779 l 79 779 l 79 1101 l 180 1101 l 180 880 l 371 880 l 371 1101 l 472 1101 "},"!":{"x_min":123,"x_max":262,"ha":385,"o":"m 262 -1 l 123 -1 l 123 138 l 262 138 l 262 -1 m 249 778 l 249 247 l 136 247 l 136 778 l 136 994 l 249 994 l 249 778 "},"Ĵ":{"x_min":37,"x_max":732.203125,"ha":694,"o":"m 583 317 q 512 58 583 134 q 304 -18 441 -18 q 108 57 180 -18 q 37 256 37 132 l 37 283 l 169 283 q 304 101 169 101 q 413 141 375 101 q 451 310 451 181 l 451 994 l 583 994 l 583 317 m 732 1057 l 593 1057 l 517 1172 l 440 1057 l 302 1057 l 452 1248 l 582 1248 l 732 1057 "},"X":{"x_min":6.78125,"x_max":919.59375,"ha":926,"o":"m 919 0 l 758 0 l 463 421 l 168 0 l 6 0 l 388 523 l 44 994 l 205 994 l 462 626 l 720 994 l 881 994 l 536 523 l 919 0 "},"‟":{"x_min":57,"x_max":406,"ha":463,"o":"m 196 660 q 92 713 127 660 q 57 855 57 766 l 57 994 l 196 994 l 196 856 l 128 856 q 196 725 128 725 l 196 660 m 406 660 q 301 713 337 660 q 266 855 266 766 l 266 994 l 405 994 l 405 856 l 337 856 q 406 725 337 725 l 406 660 "},"Ė":{"x_min":111,"x_max":852.234375,"ha":926,"o":"m 852 0 l 111 0 l 111 994 l 829 994 l 829 876 l 242 876 l 242 572 l 791 572 l 791 454 l 242 454 l 242 118 l 852 118 l 852 0 m 538 1085 l 413 1085 l 413 1224 l 538 1224 l 538 1085 "},"ˎ":{"x_min":58.328125,"x_max":308.5625,"ha":463,"o":"m 308 -271 l 208 -271 l 58 -80 l 218 -80 l 308 -271 "},"Ā":{"x_min":-1.4375,"x_max":927.484375,"ha":926,"o":"m 625 406 l 450 867 l 283 406 l 625 406 m 927 0 l 778 0 l 663 302 l 247 302 l 137 0 l -1 0 l 380 994 l 522 994 l 927 0 m 663 1103 l 240 1103 l 240 1204 l 663 1204 l 663 1103 "},"ċ":{"x_min":49,"x_max":675.921875,"ha":694,"o":"m 385 -17 q 140 81 232 -17 q 49 359 49 180 q 140 637 49 539 q 385 736 232 736 q 582 676 503 736 q 675 504 661 616 l 543 504 q 497 602 543 568 q 386 636 451 636 q 237 566 294 636 q 180 359 180 497 q 237 152 180 222 q 386 83 294 83 q 497 117 451 83 q 543 215 543 151 l 675 215 q 582 42 661 102 q 385 -17 503 -17 m 430 849 l 305 849 l 305 988 l 430 988 l 430 849 "},"đ":{"x_min":49,"x_max":773,"ha":773,"o":"m 550 206 l 550 548 q 360 636 467 636 q 229 565 278 636 q 180 353 180 494 q 226 151 180 220 q 355 83 273 83 q 550 206 462 83 m 550 85 q 344 -17 464 -17 q 126 83 203 -17 q 49 354 49 183 q 135 633 49 530 q 352 736 221 736 q 550 664 469 736 l 550 830 l 403 830 l 403 919 l 550 919 l 550 994 l 677 994 l 677 919 l 773 919 l 773 830 l 677 830 l 677 0 l 550 0 l 550 85 "},"ˡ":{"x_min":61,"x_max":147,"ha":208,"o":"m 147 328 l 61 328 l 61 994 l 147 994 l 147 328 "},"Ŀ":{"x_min":111,"x_max":726.09375,"ha":772,"o":"m 726 0 l 111 0 l 111 994 l 242 994 l 242 118 l 726 118 l 726 0 m 657 419 l 518 419 l 518 558 l 657 558 l 657 419 "},"}":{"x_min":33,"x_max":425,"ha":464,"o":"m 33 1011 l 70 1011 q 167 1000 126 1011 q 238 949 208 989 q 276 854 268 909 q 284 693 284 799 q 291 537 284 588 q 329 451 298 486 q 425 416 359 416 l 425 304 q 329 268 359 304 q 291 182 298 233 q 284 25 284 131 q 276 -135 284 -80 q 238 -230 268 -190 q 167 -281 208 -270 q 70 -292 126 -292 l 33 -292 l 33 -186 l 53 -186 q 140 -148 124 -186 q 156 52 156 -111 q 194 268 156 200 q 311 359 233 335 q 194 451 233 384 q 156 666 156 519 q 140 867 156 830 q 53 905 124 905 l 33 905 l 33 1011 "},"ŋ":{"x_min":94,"x_max":681,"ha":773,"o":"m 681 -25 q 632 -228 681 -179 q 495 -277 583 -277 q 409 -269 443 -277 l 409 -161 q 481 -171 446 -171 q 538 -141 523 -171 q 553 -22 553 -111 l 553 465 q 521 592 553 553 q 417 631 489 631 q 222 515 319 631 l 222 0 l 94 0 l 94 720 l 222 720 l 222 628 q 437 736 318 736 q 681 470 681 736 l 681 -25 "},"‰":{"x_min":17,"x_max":1372,"ha":1389,"o":"m 225 1011 q 378 941 322 1011 q 435 747 435 872 q 378 552 435 621 q 225 483 322 483 q 72 552 128 483 q 17 747 17 621 q 72 941 17 872 q 225 1011 128 1011 m 225 566 q 326 747 326 566 q 225 928 326 928 q 125 747 125 928 q 225 566 125 566 m 769 994 l 240 0 l 141 0 l 670 994 l 769 994 m 1162 511 q 1315 441 1259 511 q 1372 247 1372 372 q 1315 52 1372 121 q 1162 -17 1259 -17 q 1009 52 1065 -17 q 954 247 954 121 q 1009 441 954 372 q 1162 511 1065 511 m 1162 66 q 1264 247 1264 66 q 1162 428 1264 428 q 1063 247 1063 428 q 1162 66 1063 66 m 686 511 q 839 441 783 511 q 896 247 896 372 q 839 52 896 121 q 686 -17 783 -17 q 533 52 589 -17 q 478 247 478 121 q 533 441 478 372 q 686 511 589 511 m 686 66 q 787 247 787 66 q 686 428 787 428 q 586 247 586 428 q 686 66 586 66 "},"ř":{"x_min":28.890625,"x_max":467.5,"ha":462,"o":"m 467 602 q 389 611 440 611 q 222 508 291 611 l 222 0 l 94 0 l 94 720 l 222 720 l 222 619 q 409 736 302 736 q 467 730 436 736 l 467 602 m 458 1011 l 308 821 l 178 821 l 28 1011 l 167 1011 l 243 896 l 320 1011 l 458 1011 "},"˽":{"x_min":20,"x_max":531,"ha":551,"o":"m 531 -285 l 20 -285 l 20 -30 l 124 -30 l 124 -181 l 427 -181 l 427 -30 l 531 -30 l 531 -285 "},"—":{"x_min":-8,"x_max":822,"ha":814,"o":"m 822 310 l -8 310 l -8 409 l 822 409 l 822 310 "},"N":{"x_min":111,"x_max":891,"ha":1002,"o":"m 891 0 l 756 0 l 236 784 l 236 0 l 111 0 l 111 994 l 245 994 l 766 209 l 766 994 l 891 994 l 891 0 "},"⁄":{"x_min":-290.25,"x_max":523.546875,"ha":232,"o":"m 523 994 l -183 0 l -290 0 l 416 994 l 523 994 "},"2":{"x_min":43,"x_max":702,"ha":773,"o":"m 702 0 l 43 0 q 99 173 43 90 q 305 377 155 256 q 511 570 456 498 q 567 734 567 643 q 519 863 567 816 q 384 911 471 911 q 255 863 308 911 q 202 724 202 816 l 72 724 q 158 932 72 854 q 386 1011 245 1011 q 617 931 536 1011 q 699 731 699 851 q 639 540 699 623 q 401 309 579 457 q 223 118 223 161 l 702 118 l 702 0 "},"˷":{"x_min":4,"x_max":458,"ha":462,"o":"m 458 -114 q 422 -223 458 -181 q 320 -270 385 -270 q 223 -241 287 -270 q 141 -213 160 -213 q 92 -271 98 -213 l 4 -271 q 39 -162 4 -204 q 141 -116 76 -116 q 238 -144 174 -116 q 320 -173 301 -173 q 369 -114 363 -173 l 458 -114 "},"‍":{"x_min":-148.09375,"x_max":149.09375,"ha":1,"o":"m 25 -277 l -24 -277 l -24 984 l -114 891 l -148 925 l -32 1039 l -148 1153 l -114 1186 l 0 1070 l 115 1186 l 149 1153 l 33 1039 l 149 925 l 115 891 l 25 984 l 25 -277 "},"˜":{"x_min":4,"x_max":458,"ha":462,"o":"m 458 995 q 418 881 458 922 q 320 840 379 840 q 223 868 285 840 q 141 897 161 897 q 92 838 98 897 l 4 838 q 43 952 4 911 q 141 994 82 994 q 238 965 176 994 q 320 937 300 937 q 369 995 363 937 l 458 995 "}," ":{"x_min":0,"x_max":0,"ha":694,"o":"m 0 0 l 0 0 "},"ˇ":{"x_min":15.59375,"x_max":445.5625,"ha":463,"o":"m 445 1012 l 295 821 l 165 821 l 15 1012 l 153 1012 l 230 896 l 307 1012 l 445 1012 "},"Ⱶ":{"x_min":111,"x_max":705.078125,"ha":736,"o":"m 705 586 l 705 468 l 242 468 l 242 0 l 111 0 l 111 994 l 242 994 l 242 586 l 705 586 "},"ų":{"x_min":92,"x_max":687.5,"ha":773,"o":"m 551 91 q 335 -17 454 -17 q 92 248 92 -17 l 92 719 l 220 719 l 220 254 q 251 127 220 166 q 354 89 282 89 q 551 204 461 89 l 551 719 l 678 719 l 678 0 l 551 0 l 551 91 m 687 -278 q 610 -290 648 -290 q 507 -256 546 -290 q 469 -167 469 -223 q 565 0 469 -80 l 659 0 q 579 -133 579 -66 q 641 -192 579 -192 q 687 -185 663 -192 l 687 -278 "},"Ÿ":{"x_min":6.4375,"x_max":918.875,"ha":926,"o":"m 918 994 l 528 421 l 528 0 l 397 0 l 397 421 l 6 994 l 166 994 l 463 536 l 758 994 l 918 994 m 651 1084 l 526 1084 l 526 1223 l 651 1223 l 651 1084 m 400 1084 l 275 1084 l 275 1223 l 400 1223 l 400 1084 "},"Ŭ":{"x_min":111,"x_max":891,"ha":1002,"o":"m 500 -18 q 242 49 327 -18 q 133 207 156 116 q 111 418 111 298 l 111 994 l 242 994 l 242 420 q 308 162 242 224 q 500 101 374 101 q 693 162 627 101 q 759 420 759 224 l 759 994 l 891 994 l 891 418 q 847 152 891 237 q 718 24 804 66 q 500 -18 631 -18 m 702 1238 q 639 1108 694 1154 q 499 1063 584 1063 q 359 1109 414 1063 q 305 1238 305 1155 l 384 1238 q 501 1147 401 1147 q 619 1238 600 1147 l 702 1238 "},"ĝ":{"x_min":49,"x_max":677,"ha":772,"o":"m 677 55 q 364 -292 677 -292 q 150 -232 228 -292 q 72 -74 72 -173 l 204 -74 q 362 -192 204 -192 q 501 -143 452 -192 q 550 49 550 -93 l 550 85 q 344 -17 464 -17 q 126 83 203 -17 q 49 353 49 183 q 135 632 49 530 q 352 735 221 735 q 550 663 469 735 l 550 719 l 677 719 l 677 55 m 550 206 l 550 548 q 360 636 467 636 q 229 565 278 636 q 180 353 180 494 q 226 151 180 220 q 355 83 273 83 q 550 206 462 83 m 581 820 l 442 820 l 366 935 l 289 820 l 151 820 l 301 1011 l 431 1011 l 581 820 "},"s":{"x_min":49,"x_max":639,"ha":693,"o":"m 347 -17 q 49 214 49 -17 l 171 214 q 348 83 171 83 q 470 115 428 83 q 512 198 512 148 q 471 267 512 247 q 303 319 430 287 q 117 390 176 351 q 59 528 59 429 q 132 677 59 618 q 328 736 205 736 q 613 534 613 736 l 485 534 q 337 636 485 636 q 229 611 272 636 q 187 540 187 587 q 219 479 187 498 q 382 429 252 461 q 575 355 512 398 q 639 210 639 313 q 559 47 639 112 q 347 -17 480 -17 "},"?":{"x_min":63.40625,"x_max":705,"ha":772,"o":"m 63 724 q 162 933 74 855 q 385 1011 250 1011 q 616 934 528 1011 q 705 740 705 858 q 674 617 705 674 q 561 491 644 560 q 458 380 477 422 q 440 244 440 339 l 321 244 q 350 429 321 370 q 457 554 379 487 q 554 656 535 620 q 573 732 573 692 q 521 860 573 809 q 386 911 470 911 q 195 724 224 911 l 63 724 m 454 0 l 315 0 l 315 139 l 454 139 l 454 0 "},"Ű":{"x_min":111,"x_max":891,"ha":1002,"o":"m 500 -18 q 242 49 327 -18 q 133 207 156 116 q 111 418 111 298 l 111 994 l 242 994 l 242 420 q 308 162 242 224 q 500 101 374 101 q 693 162 627 101 q 759 420 759 224 l 759 994 l 891 994 l 891 418 q 847 152 891 237 q 718 24 804 66 q 500 -18 631 -18 m 793 1248 l 643 1057 l 543 1057 l 633 1248 l 793 1248 m 564 1248 l 414 1057 l 314 1057 l 404 1248 l 564 1248 "},"c":{"x_min":49,"x_max":675.921875,"ha":694,"o":"m 385 -17 q 140 81 232 -17 q 49 359 49 180 q 140 637 49 539 q 385 736 232 736 q 582 676 503 736 q 675 504 661 616 l 543 504 q 497 602 543 568 q 386 636 451 636 q 237 566 294 636 q 180 359 180 497 q 237 152 180 222 q 386 83 294 83 q 497 117 451 83 q 543 215 543 151 l 675 215 q 582 42 661 102 q 385 -17 503 -17 "},"Ņ":{"x_min":111,"x_max":891,"ha":1002,"o":"m 891 0 l 756 0 l 236 784 l 236 0 l 111 0 l 111 994 l 245 994 l 766 209 l 766 994 l 891 994 l 891 0 m 441 -47 l 480 -47 q 650 -159 650 -47 q 444 -291 650 -291 q 374 -291 413 -291 l 374 -209 q 448 -214 411 -214 q 536 -158 536 -214 q 441 -107 536 -107 l 441 -47 "},"Ī":{"x_min":-18,"x_max":405,"ha":386,"o":"m 260 0 l 128 0 l 128 994 l 260 994 l 260 0 m 405 1104 l -18 1104 l -18 1205 l 405 1205 l 405 1104 "},"•":{"x_min":71,"x_max":416,"ha":487,"o":"m 243 659 q 365 608 314 659 q 416 486 416 557 q 365 364 416 415 q 243 314 314 314 q 121 364 172 314 q 71 486 71 415 q 121 608 71 557 q 243 659 172 659 "},"(":{"x_min":83,"x_max":411.78125,"ha":462,"o":"m 411 -292 l 324 -292 q 83 359 83 21 q 324 1011 83 697 l 411 1011 q 209 359 209 686 q 411 -292 209 32 "},"Ħ":{"x_min":14,"x_max":989,"ha":1003,"o":"m 989 760 l 892 760 l 892 0 l 760 0 l 760 468 l 243 468 l 243 0 l 111 0 l 111 760 l 14 760 l 14 849 l 111 849 l 111 994 l 243 994 l 243 849 l 760 849 l 760 994 l 892 994 l 892 849 l 989 849 l 989 760 m 760 586 l 760 760 l 243 760 l 243 586 l 760 586 "},":":{"x_min":123,"x_max":262,"ha":385,"o":"m 262 0 l 123 0 l 123 139 l 262 139 l 262 0 m 262 581 l 123 581 l 123 720 l 262 720 l 262 581 "},"ˢ":{"x_min":65,"x_max":462,"ha":523,"o":"m 462 469 q 399 353 462 394 q 266 317 345 317 q 65 472 65 317 l 147 472 q 267 384 147 384 q 340 400 310 384 q 377 461 377 422 q 321 519 377 498 q 236 542 316 521 q 123 582 153 563 q 73 682 73 615 q 130 789 73 751 q 253 822 181 822 q 443 687 443 822 l 357 687 q 258 755 357 755 q 158 691 158 755 q 208 636 158 655 q 288 616 213 634 q 408 574 377 595 q 462 469 462 540 "},"V":{"x_min":8.140625,"x_max":916.890625,"ha":926,"o":"m 916 994 l 530 0 l 394 0 l 8 994 l 148 994 l 462 141 l 776 994 l 916 994 "},"ś":{"x_min":49,"x_max":639,"ha":693,"o":"m 347 -17 q 49 214 49 -17 l 171 214 q 348 83 171 83 q 470 115 428 83 q 512 198 512 148 q 471 267 512 247 q 303 319 430 287 q 117 390 176 351 q 59 528 59 429 q 132 677 59 618 q 328 736 205 736 q 613 534 613 736 l 485 534 q 337 636 485 636 q 229 611 272 636 q 187 540 187 587 q 219 479 187 498 q 382 429 252 461 q 575 355 512 398 q 639 210 639 313 q 559 47 639 112 q 347 -17 480 -17 m 520 1012 l 370 821 l 270 821 l 360 1012 l 520 1012 "},"Ŗ":{"x_min":111,"x_max":939.578125,"ha":1003,"o":"m 939 0 l 796 0 l 703 265 q 620 380 678 335 q 485 425 561 425 l 242 425 l 242 0 l 111 0 l 111 994 l 551 994 q 739 971 666 994 q 858 877 812 949 q 905 715 905 805 q 845 543 905 612 q 682 452 785 473 l 682 450 q 839 270 785 416 l 939 0 m 242 543 l 535 543 q 713 581 658 543 q 769 715 769 620 q 556 885 769 885 l 242 885 l 242 543 m 451 -48 l 490 -48 q 660 -160 660 -48 q 454 -291 660 -291 q 384 -291 423 -291 l 384 -209 q 458 -214 421 -214 q 546 -158 546 -214 q 451 -108 546 -108 l 451 -48 "},"ʾ":{"x_min":170,"x_max":292,"ha":462,"o":"m 292 921 q 256 833 292 869 q 170 798 220 798 l 170 848 q 221 869 200 848 q 242 921 242 891 q 220 973 242 951 q 170 995 199 995 l 170 1045 q 256 1009 220 1045 q 292 921 292 973 "},"@":{"x_min":78,"x_max":1329,"ha":1410,"o":"m 1097 -227 q 763 -292 949 -292 q 261 -129 444 -292 q 78 317 78 33 q 267 814 78 616 q 748 1012 457 1012 q 1171 861 1013 1012 q 1329 483 1329 710 q 1212 126 1329 253 q 919 -1 1095 -1 q 826 30 861 -1 q 791 110 791 62 q 581 -1 709 -1 q 405 72 475 -1 q 336 276 336 146 q 446 595 336 456 q 687 734 557 734 q 900 647 833 734 l 916 715 l 1037 715 l 932 259 q 915 146 915 184 q 952 98 915 98 q 1147 200 1065 98 q 1229 485 1229 303 q 1094 795 1229 673 q 747 918 960 918 q 338 743 498 918 q 178 317 178 569 q 331 -62 178 72 q 761 -198 484 -198 q 1046 -145 929 -198 l 1097 -227 m 877 548 q 696 634 820 634 q 533 522 605 634 q 461 280 461 410 q 606 98 461 98 q 739 157 677 98 q 824 317 801 216 l 877 548 "},"ʼ":{"x_min":85,"x_max":224,"ha":309,"o":"m 224 855 q 188 713 224 766 q 85 660 153 660 l 85 725 q 153 856 153 725 l 85 856 l 85 994 l 224 994 l 224 855 "},"i":{"x_min":94,"x_max":222,"ha":316,"o":"m 222 0 l 94 0 l 94 720 l 222 720 l 222 0 m 222 856 l 94 856 l 94 994 l 222 994 l 222 856 "},"ŉ":{"x_min":22,"x_max":847,"ha":939,"o":"m 388 628 q 603 736 483 736 q 847 470 847 736 l 847 0 l 719 0 l 719 465 q 687 592 719 553 q 583 631 655 631 q 388 515 485 631 l 388 0 l 260 0 l 260 720 l 388 720 l 388 628 m 161 855 q 125 713 161 766 q 22 660 90 660 l 22 725 q 90 856 90 725 l 22 856 l 22 994 l 161 994 l 161 855 "},"˦":{"x_min":101.546875,"x_max":430,"ha":532,"o":"m 430 0 l 324 0 l 324 666 l 101 666 l 101 772 l 324 772 l 324 994 l 430 994 l 430 0 "},"˹":{"x_min":104,"x_max":358.828125,"ha":463,"o":"m 358 906 l 192 906 l 192 739 l 104 739 l 104 994 l 358 994 l 358 906 "},"Ģ":{"x_min":65,"x_max":992,"ha":1081,"o":"m 545 -17 q 198 123 331 -17 q 65 497 65 264 q 196 871 65 731 q 542 1012 328 1012 q 840 925 721 1012 q 974 694 960 839 l 837 694 q 750 844 829 790 q 543 899 671 899 q 294 793 388 899 q 201 497 201 688 q 296 201 201 306 q 544 96 391 96 q 864 237 759 96 l 864 389 l 601 389 l 601 508 l 992 508 l 992 0 l 898 0 l 864 104 q 545 -17 762 -17 m 475 -47 l 514 -47 q 684 -159 684 -47 q 478 -290 684 -290 q 408 -290 447 -290 l 408 -208 q 482 -213 445 -213 q 570 -157 570 -213 q 475 -107 570 -107 l 475 -47 "},"m":{"x_min":94,"x_max":1066,"ha":1156,"o":"m 1066 0 l 938 0 l 938 465 q 912 593 938 555 q 826 631 886 631 q 644 515 733 631 l 644 0 l 516 0 l 516 465 q 490 593 516 555 q 403 631 464 631 q 222 515 310 631 l 222 0 l 94 0 l 94 720 l 222 720 l 222 628 q 423 736 312 736 q 624 605 581 736 q 746 713 696 690 q 845 736 797 736 q 1066 470 1066 736 l 1066 0 "},"ĕ":{"x_min":49,"x_max":723.796875,"ha":773,"o":"m 400 -17 q 145 82 241 -17 q 49 359 49 181 q 142 635 49 535 q 386 736 235 736 q 631 637 540 736 q 723 359 723 539 l 723 329 l 186 329 q 247 143 186 203 q 399 83 309 83 q 522 117 467 83 q 577 215 577 151 l 710 215 q 609 43 695 103 q 400 -17 523 -17 m 589 429 q 519 584 573 532 q 386 636 464 636 q 254 584 309 636 q 184 429 199 533 l 589 429 m 587 1002 q 524 873 579 919 q 384 827 469 827 q 243 873 298 827 q 189 1002 189 919 l 269 1002 q 386 911 285 911 q 504 1002 485 911 l 587 1002 "},"ż":{"x_min":28,"x_max":665,"ha":694,"o":"m 665 0 l 28 0 l 28 109 l 476 611 l 54 611 l 54 720 l 643 720 l 643 611 l 194 109 l 665 109 l 665 0 m 408 849 l 283 849 l 283 988 l 408 988 l 408 849 "},"Ɽ":{"x_min":111,"x_max":939.578125,"ha":1003,"o":"m 939 0 l 796 0 l 703 265 q 620 380 678 335 q 485 425 561 425 l 242 425 l 242 0 l 111 0 l 111 994 l 551 994 q 739 971 666 994 q 858 877 812 949 q 905 715 905 805 q 845 543 905 612 q 682 452 785 473 l 682 450 q 839 270 785 416 l 939 0 m 242 543 l 535 543 q 713 581 658 543 q 769 715 769 620 q 556 885 769 885 l 242 885 l 242 543 m 243 89 l 243 0 l 243 -38 q 257 -155 243 -125 q 314 -185 272 -185 q 386 -175 349 -185 l 386 -284 q 300 -291 352 -291 q 163 -242 213 -291 q 111 -40 111 -189 l 111 89 l 243 89 "},"ő":{"x_min":49,"x_max":724,"ha":773,"o":"m 386 736 q 632 637 540 736 q 724 359 724 539 q 632 81 724 180 q 386 -17 540 -17 q 140 81 232 -17 q 49 359 49 180 q 140 637 49 539 q 386 736 232 736 m 386 83 q 534 152 477 83 q 592 359 592 222 q 534 566 592 497 q 386 636 477 636 q 237 566 294 636 q 180 359 180 497 q 237 152 180 222 q 386 83 294 83 m 671 1012 l 521 821 l 420 821 l 511 1012 l 671 1012 m 441 1012 l 291 821 l 191 821 l 281 1012 l 441 1012 "},"ž":{"x_min":28,"x_max":665,"ha":694,"o":"m 665 0 l 28 0 l 28 109 l 476 611 l 54 611 l 54 720 l 643 720 l 643 611 l 194 109 l 665 109 l 665 0 m 562 1011 l 412 821 l 282 821 l 132 1011 l 270 1011 l 347 896 l 423 1011 l 562 1011 "}," ":{"x_min":0,"x_max":0,"ha":184},"˔":{"x_min":104,"x_max":359,"ha":463,"o":"m 359 136 l 104 136 l 104 224 l 187 224 l 187 390 l 275 390 l 275 224 l 359 224 l 359 136 "},"Ŏ":{"x_min":65,"x_max":1016,"ha":1080,"o":"m 541 1012 q 883 870 750 1012 q 1016 497 1016 729 q 883 124 1016 265 q 541 -17 750 -17 q 198 124 332 -17 q 65 497 65 266 q 198 870 65 729 q 541 1012 332 1012 m 540 96 q 784 201 689 96 q 880 497 880 307 q 785 793 880 687 q 542 899 690 899 q 296 793 392 899 q 201 497 201 687 q 296 202 201 308 q 540 96 392 96 m 741 1240 q 677 1110 732 1156 q 537 1064 622 1064 q 397 1110 452 1064 q 343 1240 343 1157 l 423 1240 q 539 1148 439 1148 q 657 1240 638 1148 l 741 1240 "},"İ":{"x_min":127,"x_max":259,"ha":385,"o":"m 259 0 l 127 0 l 127 994 l 259 994 l 259 0 m 257 1085 l 132 1085 l 132 1224 l 257 1224 l 257 1085 "},"Ě":{"x_min":111,"x_max":852.234375,"ha":926,"o":"m 852 0 l 111 0 l 111 994 l 829 994 l 829 876 l 242 876 l 242 572 l 791 572 l 791 454 l 242 454 l 242 118 l 852 118 l 852 0 m 684 1247 l 534 1057 l 404 1057 l 254 1247 l 393 1247 l 469 1132 l 546 1247 l 684 1247 "},"K":{"x_min":111,"x_max":923.453125,"ha":926,"o":"m 923 0 l 749 0 l 397 495 l 242 344 l 242 0 l 111 0 l 111 994 l 242 994 l 242 501 l 727 994 l 905 994 l 488 585 l 923 0 "},"7":{"x_min":66,"x_max":710,"ha":772,"o":"m 710 903 l 348 0 l 205 0 l 576 876 l 66 876 l 66 994 l 710 994 l 710 903 "},"Y":{"x_min":6.375,"x_max":919.1875,"ha":926,"o":"m 919 994 l 528 421 l 528 0 l 397 0 l 397 421 l 6 994 l 166 994 l 463 536 l 759 994 l 919 994 "},"E":{"x_min":111,"x_max":852.234375,"ha":926,"o":"m 852 0 l 111 0 l 111 994 l 829 994 l 829 876 l 242 876 l 242 572 l 791 572 l 791 454 l 242 454 l 242 118 l 852 118 l 852 0 "},"ˁ":{"x_min":61,"x_max":481.203125,"ha":542,"o":"m 481 850 l 391 850 q 288 939 391 939 q 149 753 149 939 q 178 627 149 676 q 286 568 214 568 l 330 568 l 330 328 l 244 328 l 244 504 q 103 589 151 518 q 61 753 61 654 q 115 934 61 866 q 287 1006 175 1006 q 416 967 365 1006 q 481 850 471 926 "},"‹":{"x_min":61.03125,"x_max":376.390625,"ha":463,"o":"m 376 49 l 276 49 l 61 358 l 276 668 l 376 668 l 200 358 l 376 49 "},"ġ":{"x_min":49,"x_max":677,"ha":772,"o":"m 677 55 q 364 -292 677 -292 q 150 -232 228 -292 q 72 -74 72 -173 l 204 -74 q 362 -192 204 -192 q 501 -143 452 -192 q 550 49 550 -93 l 550 85 q 344 -17 464 -17 q 126 83 203 -17 q 49 353 49 183 q 135 632 49 530 q 352 735 221 735 q 550 663 469 735 l 550 719 l 677 719 l 677 55 m 550 206 l 550 548 q 360 636 467 636 q 229 565 278 636 q 180 353 180 494 q 226 151 180 220 q 355 83 273 83 q 550 206 462 83 m 429 848 l 304 848 l 304 987 l 429 987 l 429 848 "},"ˮ":{"x_min":57,"x_max":406,"ha":463,"o":"m 406 855 q 370 713 406 766 q 267 660 335 660 l 267 725 q 335 856 335 725 l 267 856 l 267 994 l 406 994 l 406 855 m 196 855 q 160 713 196 766 q 57 660 125 660 l 57 725 q 125 856 125 725 l 57 856 l 57 994 l 196 994 l 196 855 "},"ķ":{"x_min":94,"x_max":688.71875,"ha":694,"o":"m 688 0 l 536 0 l 302 365 l 222 286 l 222 0 l 94 0 l 94 994 l 222 994 l 222 430 l 499 720 l 660 720 l 388 451 l 688 0 m 319 -47 l 358 -47 q 528 -159 528 -47 q 322 -291 528 -291 q 252 -291 291 -291 l 252 -209 q 326 -214 289 -214 q 414 -158 414 -214 q 319 -107 414 -107 l 319 -47 "},"ⱴ":{"x_min":20.03125,"x_max":695.96875,"ha":714,"o":"m 366 156 l 557 719 l 695 719 l 424 0 l 309 0 l 145 353 l 61 305 l 20 388 l 108 440 q 85 511 94 475 q 77 584 77 547 q 92 665 77 632 q 133 719 108 698 q 189 749 158 740 q 250 759 220 759 q 308 749 280 759 q 356 721 335 740 q 390 676 377 703 q 403 614 403 649 q 392 554 403 581 q 361 503 381 526 q 314 458 341 479 q 252 416 286 437 l 366 156 m 299 604 q 286 645 299 629 q 250 661 274 661 q 214 645 230 661 q 199 593 199 629 q 203 549 199 571 q 215 504 207 528 q 277 551 255 528 q 299 604 299 574 "},"︠":{"x_min":-117.46875,"x_max":421,"ha":0,"o":"m 421 1173 q -7 1001 116 1173 l -117 1001 q 421 1259 45 1259 l 421 1173 "}," ":{"x_min":0,"x_max":0,"ha":463,"o":"m 0 0 l 0 0 "},"|":{"x_min":127,"x_max":233,"ha":360,"o":"m 233 -292 l 127 -292 l 127 994 l 233 994 l 233 -292 "},"ⱬ":{"x_min":27.59375,"x_max":729.421875,"ha":759,"o":"m 665 0 l 27 0 l 27 109 l 475 611 l 54 611 l 54 720 l 643 720 l 643 611 l 194 109 l 665 109 l 665 0 m 729 109 l 729 -193 l 602 -193 l 602 109 l 729 109 "},"ˍ":{"x_min":20,"x_max":443,"ha":463,"o":"m 443 -271 l 20 -271 l 20 -170 l 443 -170 l 443 -271 "},"˳":{"x_min":110,"x_max":354,"ha":463,"o":"m 354 -161 q 318 -249 354 -213 q 232 -285 282 -285 q 145 -248 181 -285 q 110 -161 110 -212 q 145 -73 110 -109 q 232 -38 181 -38 q 318 -73 283 -38 q 354 -161 354 -109 m 304 -161 q 283 -109 304 -130 q 231 -88 262 -88 q 180 -109 201 -88 q 160 -161 160 -131 q 180 -213 160 -191 q 231 -235 201 -235 q 283 -213 262 -235 q 304 -161 304 -191 "},"q":{"x_min":49,"x_max":677,"ha":772,"o":"m 677 -277 l 550 -277 l 550 85 q 344 -17 464 -17 q 126 83 203 -17 q 49 353 49 183 q 135 632 49 530 q 352 735 221 735 q 550 663 469 735 l 550 719 l 677 719 l 677 -277 m 550 206 l 550 548 q 360 636 467 636 q 229 565 278 636 q 180 353 180 494 q 226 151 180 220 q 355 83 273 83 q 550 206 462 83 "},"b":{"x_min":94,"x_max":723,"ha":772,"o":"m 222 633 q 427 736 307 736 q 645 635 568 736 q 723 365 723 535 q 636 85 723 188 q 418 -17 550 -17 q 222 55 302 -17 l 222 0 l 94 0 l 94 994 l 222 994 l 222 633 m 222 170 q 410 83 304 83 q 542 153 493 83 q 591 365 591 224 q 544 567 591 498 q 416 636 498 636 q 222 512 309 636 l 222 170 "},"Ŋ":{"x_min":111,"x_max":891,"ha":1002,"o":"m 766 -15 l 236 784 l 236 0 l 111 0 l 111 994 l 245 994 l 766 209 l 766 994 l 891 994 l 891 -25 q 840 -222 891 -167 q 692 -277 790 -277 q 592 -268 633 -277 l 592 -160 q 677 -171 635 -171 q 747 -137 728 -171 q 766 -22 766 -104 l 766 -15 "},"˥":{"x_min":101.546875,"x_max":430,"ha":532,"o":"m 430 0 l 324 0 l 324 888 l 101 888 l 101 994 l 430 994 l 430 0 "},"Ũ":{"x_min":111,"x_max":891,"ha":1002,"o":"m 500 -18 q 242 49 327 -18 q 133 207 156 116 q 111 418 111 298 l 111 994 l 242 994 l 242 420 q 308 162 242 224 q 500 101 374 101 q 693 162 627 101 q 759 420 759 224 l 759 994 l 891 994 l 891 418 q 847 152 891 237 q 718 24 804 66 q 500 -18 631 -18 m 729 1231 q 689 1117 729 1158 q 591 1076 650 1076 q 494 1104 556 1076 q 412 1133 432 1133 q 363 1074 369 1133 l 275 1074 q 314 1188 275 1147 q 412 1230 353 1230 q 509 1201 447 1230 q 591 1173 571 1173 q 640 1231 634 1173 l 729 1231 "},"ˠ":{"x_min":6.609375,"x_max":447.390625,"ha":454,"o":"m 447 810 l 268 408 l 299 334 q 326 244 326 270 q 226 142 326 142 q 128 244 128 142 q 154 334 128 271 l 185 408 l 6 810 l 99 810 l 227 505 l 354 810 l 447 810 m 249 238 q 233 289 249 252 l 227 305 l 220 289 q 205 238 205 252 q 227 213 205 213 q 249 238 249 213 "},"L":{"x_min":111,"x_max":726.09375,"ha":772,"o":"m 726 0 l 111 0 l 111 994 l 242 994 l 242 118 l 726 118 l 726 0 "},"ď":{"x_min":49,"x_max":881,"ha":881,"o":"m 550 206 l 550 548 q 360 636 467 636 q 229 565 278 636 q 180 353 180 494 q 226 151 180 220 q 355 83 273 83 q 550 206 462 83 m 550 85 q 344 -17 464 -17 q 126 83 203 -17 q 49 354 49 183 q 135 633 49 530 q 352 736 221 736 q 550 664 469 736 l 550 994 l 677 994 l 677 0 l 550 0 l 550 85 m 881 855 q 845 713 881 766 q 742 660 810 660 l 742 725 q 810 856 810 725 l 742 856 l 742 994 l 881 994 l 881 855 "},"Ɫ":{"x_min":6.921875,"x_max":784.109375,"ha":830,"o":"m 784 0 l 169 0 l 169 994 l 300 994 l 300 118 l 784 118 l 784 0 m 461 543 q 421 429 461 470 q 323 388 382 388 q 226 416 288 388 q 144 445 164 445 q 95 386 101 445 l 6 386 q 46 500 6 459 q 144 542 85 542 q 241 513 179 542 q 323 485 303 485 q 372 543 366 485 l 461 543 "}," ":{"x_min":0,"x_max":0,"ha":369,"o":"m 0 0 l 0 0 "},"Ĭ":{"x_min":-4,"x_max":394.28125,"ha":386,"o":"m 260 0 l 128 0 l 128 994 l 260 994 l 260 0 m 394 1240 q 330 1110 386 1156 q 191 1064 275 1064 q 50 1110 105 1064 q -4 1240 -4 1156 l 76 1240 q 192 1148 92 1148 q 310 1240 291 1148 l 394 1240 "},"ʺ":{"x_min":58.328125,"x_max":442.84375,"ha":463,"o":"m 248 1011 l 140 736 l 58 736 l 107 1011 l 248 1011 m 442 1011 l 335 736 l 252 736 l 301 1011 l 442 1011 "},"ŧ":{"x_min":24,"x_max":374,"ha":386,"o":"m 241 370 l 241 204 q 259 110 241 130 q 310 90 278 90 q 374 96 343 90 l 374 0 q 282 -9 331 -9 q 167 19 203 -9 q 121 91 130 47 q 113 211 113 135 l 113 370 l 24 370 l 24 459 l 113 459 l 113 620 l 24 620 l 24 720 l 113 720 l 113 899 l 241 899 l 241 720 l 357 720 l 357 620 l 241 620 l 241 459 l 329 459 l 329 370 l 241 370 "},"+":{"x_min":77,"x_max":735,"ha":812,"o":"m 735 433 l 463 433 l 463 161 l 349 161 l 349 433 l 77 433 l 77 547 l 349 547 l 349 819 l 463 819 l 463 547 l 735 547 l 735 433 "},"ʰ":{"x_min":61,"x_max":453,"ha":514,"o":"m 453 327 l 368 327 l 368 639 q 277 750 368 750 q 146 672 211 750 l 146 328 l 61 328 l 61 994 l 146 994 l 146 747 q 290 821 210 821 q 453 643 453 821 l 453 327 "},"˅":{"x_min":69.171875,"x_max":741.921875,"ha":811,"o":"m 741 819 l 462 161 l 348 161 l 69 819 l 190 819 l 405 296 l 620 819 l 741 819 "},"˗":{"x_min":20,"x_max":443,"ha":463,"o":"m 443 219 l 20 219 l 20 320 l 443 320 l 443 219 "},"'":{"x_min":62,"x_max":201,"ha":265,"o":"m 201 831 l 170 641 l 95 641 l 62 831 l 62 994 l 201 994 l 201 831 "},"Š":{"x_min":64.796875,"x_max":854,"ha":926,"o":"m 484 -17 q 169 77 273 -17 q 64 319 64 171 l 189 319 q 281 155 199 208 q 480 102 364 102 q 658 147 591 102 q 726 270 726 192 q 656 389 726 352 q 415 463 586 427 q 171 564 245 499 q 97 735 97 628 q 193 933 97 856 q 451 1011 290 1011 q 723 933 620 1011 q 827 713 827 855 l 702 713 q 455 893 682 893 q 285 851 345 893 q 225 741 225 810 q 273 648 225 679 q 454 588 321 617 q 664 530 587 558 q 798 441 742 501 q 854 280 854 381 q 751 67 854 152 q 484 -17 649 -17 m 662 1247 l 513 1057 l 382 1057 l 233 1247 l 371 1247 l 448 1132 l 524 1247 l 662 1247 "},"ĳ":{"x_min":94,"x_max":539,"ha":633,"o":"m 222 0 l 94 0 l 94 720 l 222 720 l 222 0 m 222 856 l 94 856 l 94 994 l 222 994 l 222 856 m 539 -38 q 490 -241 539 -192 q 353 -290 441 -290 q 267 -283 301 -290 l 267 -174 q 339 -184 304 -184 q 396 -154 381 -184 q 411 -35 411 -125 l 411 720 l 539 720 l 539 -38 m 539 856 l 411 856 l 411 994 l 539 994 l 539 856 "}," ":{"x_min":0,"x_max":0,"ha":1389,"o":"m 0 0 l 0 0 "},"˾":{"x_min":20,"x_max":530.90625,"ha":551,"o":"m 530 -285 l 20 -285 l 20 -30 l 124 -30 l 124 -181 l 530 -181 l 530 -285 "},"˛":{"x_min":45,"x_max":263.5,"ha":463,"o":"m 263 -278 q 186 -290 224 -290 q 83 -256 122 -290 q 45 -167 45 -223 q 141 0 45 -80 l 235 0 q 155 -133 155 -66 q 217 -192 155 -192 q 263 -185 239 -192 l 263 -278 "},"ʴ":{"x_min":6.875,"x_max":257,"ha":318,"o":"m 257 328 l 171 328 l 171 394 q 46 317 116 317 q 6 320 26 317 l 6 405 q 59 400 25 400 q 171 468 124 400 l 171 810 l 257 810 l 257 328 "},"ⱷ":{"x_min":49,"x_max":852.5625,"ha":901,"o":"m 520 94 q 665 184 610 107 q 721 378 721 262 q 680 564 721 492 q 584 636 639 636 q 520 536 520 636 l 520 94 m 520 -17 q 496 -19 508 -18 q 476 -22 487 -22 q 456 -22 464 -22 q 438 -22 449 -22 q 417 -19 427 -22 q 392 -11 404 -15 q 142 103 235 -11 q 49 375 49 218 q 126 641 49 548 q 320 735 204 735 l 320 636 q 180 378 180 636 q 237 183 180 260 q 392 89 293 106 l 392 547 q 440 681 392 627 q 569 735 489 735 q 779 633 706 735 q 852 378 852 530 q 761 110 852 224 q 520 -17 669 -3 "},"ş":{"x_min":48,"x_max":640,"ha":694,"o":"m 298 -13 q 48 215 48 8 l 171 215 q 349 84 171 84 q 471 116 429 84 q 513 198 513 149 q 471 267 513 247 q 303 319 430 287 q 117 390 176 351 q 59 529 59 430 q 132 677 59 618 q 328 736 205 736 q 613 534 613 736 l 485 534 q 337 636 485 636 q 229 611 272 636 q 187 540 187 587 q 219 479 187 498 q 382 429 251 461 q 576 356 513 398 q 640 211 640 314 q 575 60 640 123 q 393 -15 510 -3 l 393 -51 q 507 -159 507 -65 q 300 -290 507 -290 q 231 -290 270 -290 l 231 -208 q 305 -213 268 -213 q 393 -157 393 -213 q 298 -107 393 -107 l 298 -13 "}," ":{"x_min":0,"x_max":0,"ha":772,"o":"m 0 0 l 0 0 "},"ı":{"x_min":94,"x_max":222,"ha":316,"o":"m 222 0 l 94 0 l 94 720 l 222 720 l 222 0 "},"Ć":{"x_min":65,"x_max":931.375,"ha":1003,"o":"m 527 -17 q 190 121 316 -17 q 65 497 65 260 q 190 873 65 734 q 527 1012 316 1012 q 803 924 689 1012 q 931 693 917 836 l 795 693 q 714 843 787 787 q 528 899 640 899 q 289 794 377 899 q 201 497 201 690 q 288 200 201 304 q 525 96 375 96 q 714 152 642 96 q 795 315 786 209 l 931 315 q 806 69 917 156 q 527 -17 696 -17 m 702 1248 l 552 1057 l 452 1057 l 542 1248 l 702 1248 "},"˓":{"x_min":170,"x_max":292,"ha":462,"o":"m 292 180 q 205 215 241 180 q 170 303 170 251 q 205 391 170 355 q 292 427 241 427 l 292 377 q 241 355 262 377 q 220 303 220 333 q 240 251 220 273 q 292 230 261 230 l 292 180 "},"ů":{"x_min":92,"x_max":678,"ha":773,"o":"m 551 91 q 335 -17 454 -17 q 92 248 92 -17 l 92 719 l 220 719 l 220 254 q 251 127 220 166 q 354 89 282 89 q 551 204 461 89 l 551 720 l 678 720 l 678 0 l 551 0 l 551 91 m 382 1045 q 468 1008 432 1045 q 504 921 504 972 q 468 833 504 869 q 382 797 432 797 q 295 833 331 797 q 260 921 260 869 q 295 1008 260 972 q 382 1045 331 1045 m 381 847 q 432 868 411 847 q 454 921 454 890 q 432 973 454 951 q 381 995 411 995 q 330 973 351 995 q 310 921 310 951 q 330 868 310 890 q 381 847 351 847 "},"Ō":{"x_min":65,"x_max":1016,"ha":1080,"o":"m 541 1012 q 883 870 750 1012 q 1016 497 1016 729 q 883 124 1016 265 q 541 -17 750 -17 q 198 124 332 -17 q 65 497 65 266 q 198 870 65 729 q 541 1012 332 1012 m 540 96 q 784 201 689 96 q 880 497 880 307 q 785 793 880 687 q 542 899 690 899 q 296 793 392 899 q 201 497 201 687 q 296 202 201 308 q 540 96 392 96 m 752 1104 l 329 1104 l 329 1205 l 752 1205 l 752 1104 "},"W":{"x_min":16.953125,"x_max":1297.34375,"ha":1311,"o":"m 1297 994 l 1022 0 l 895 0 l 657 863 l 417 0 l 291 0 l 16 994 l 155 994 l 354 184 l 577 994 l 735 994 l 959 184 l 1158 994 l 1297 994 "},"Ğ":{"x_min":65,"x_max":992,"ha":1081,"o":"m 545 -17 q 198 123 331 -17 q 65 497 65 264 q 196 871 65 731 q 542 1012 328 1012 q 840 925 721 1012 q 974 693 960 838 l 837 693 q 750 844 829 789 q 543 899 671 899 q 294 793 388 899 q 201 497 201 688 q 296 201 201 306 q 544 96 391 96 q 864 237 759 96 l 864 388 l 601 388 l 601 507 l 992 507 l 992 0 l 898 0 l 864 104 q 545 -17 762 -17 m 788 1241 q 725 1111 780 1157 q 585 1065 670 1065 q 445 1111 500 1065 q 391 1241 391 1158 l 470 1241 q 587 1149 487 1149 q 705 1241 686 1149 l 788 1241 "},"‎":{"x_min":-24,"x_max":292.875,"ha":1,"o":"m 292 1041 l 145 896 l 112 929 l 205 1018 l 25 1018 l 25 -276 l -24 -276 l -24 1066 l 205 1066 l 112 1154 l 145 1187 l 292 1041 "},"v":{"x_min":18.3125,"x_max":676.140625,"ha":694,"o":"m 676 720 l 404 0 l 290 0 l 18 720 l 156 720 l 347 156 l 537 720 l 676 720 "},">":{"x_min":77,"x_max":735,"ha":812,"o":"m 735 433 l 77 153 l 77 275 l 599 490 l 77 705 l 77 826 l 735 547 l 735 433 "},"˪":{"x_min":66,"x_max":396.53125,"ha":462,"o":"m 396 0 l 66 0 l 66 597 l 130 597 l 130 64 l 396 64 l 396 0 "},"Ź":{"x_min":25,"x_max":811,"ha":848,"o":"m 811 0 l 25 0 l 25 123 l 642 876 l 82 876 l 82 994 l 794 994 l 794 870 l 176 118 l 811 118 l 811 0 m 576 1248 l 426 1057 l 326 1057 l 416 1248 l 576 1248 "},"Ų":{"x_min":111,"x_max":891,"ha":1002,"o":"m 500 -17 q 242 50 327 -17 q 133 208 156 117 q 111 419 111 298 l 111 994 l 242 994 l 242 421 q 308 163 242 225 q 500 101 374 101 q 693 163 627 101 q 759 421 759 225 l 759 994 l 891 994 l 891 419 q 847 153 891 238 q 718 25 804 67 q 500 -17 631 -17 m 654 -278 q 577 -290 615 -290 q 474 -256 513 -290 q 436 -167 436 -223 q 532 0 436 -80 l 626 0 q 546 -133 546 -66 q 608 -192 546 -192 q 654 -185 630 -192 l 654 -278 "},"ʻ":{"x_min":85,"x_max":224.5,"ha":309,"o":"m 224 676 l 85 676 l 85 815 q 120 957 85 903 q 224 1011 155 1011 l 224 946 q 156 815 156 946 l 224 815 l 224 676 "},"Ŵ":{"x_min":16.953125,"x_max":1297.34375,"ha":1311,"o":"m 1297 994 l 1022 0 l 895 0 l 657 863 l 417 0 l 291 0 l 16 994 l 155 994 l 354 184 l 577 994 l 735 994 l 959 184 l 1158 994 l 1297 994 m 872 1057 l 733 1057 l 657 1172 l 580 1057 l 442 1057 l 592 1248 l 722 1248 l 872 1057 "},"‛":{"x_min":85,"x_max":224.5,"ha":309,"o":"m 224 660 q 120 713 155 660 q 85 855 85 766 l 85 994 l 224 994 l 224 856 l 156 856 q 224 725 156 725 l 224 660 "},"ˉ":{"x_min":20,"x_max":443,"ha":463,"o":"m 443 867 l 20 867 l 20 968 l 443 968 l 443 867 "},"Ĺ":{"x_min":111,"x_max":726.09375,"ha":772,"o":"m 726 0 l 111 0 l 111 994 l 242 994 l 242 118 l 726 118 l 726 0 m 459 1257 l 309 1066 l 209 1066 l 299 1257 l 459 1257 "},"r":{"x_min":94,"x_max":467.5,"ha":462,"o":"m 467 602 q 389 611 440 611 q 222 508 291 611 l 222 0 l 94 0 l 94 720 l 222 720 l 222 619 q 409 736 302 736 q 467 730 436 736 l 467 602 "},"‒":{"x_min":174,"x_max":597,"ha":772,"o":"m 597 310 l 174 310 l 174 409 l 597 409 l 597 310 "},"Č":{"x_min":65,"x_max":931.375,"ha":1003,"o":"m 527 -17 q 190 121 316 -17 q 65 497 65 260 q 190 873 65 734 q 527 1012 316 1012 q 803 924 689 1012 q 931 693 917 836 l 795 693 q 714 843 787 787 q 528 899 640 899 q 289 794 377 899 q 201 497 201 690 q 288 200 201 304 q 525 96 375 96 q 714 152 642 96 q 795 315 786 209 l 931 315 q 806 69 917 156 q 527 -17 696 -17 m 738 1248 l 588 1057 l 458 1057 l 308 1248 l 446 1248 l 523 1132 l 599 1248 l 738 1248 "},"x":{"x_min":9.5,"x_max":684.953125,"ha":694,"o":"m 684 0 l 526 0 l 347 280 l 168 0 l 9 0 l 275 373 l 30 720 l 189 720 l 347 468 l 505 720 l 663 720 l 419 375 l 684 0 "},"Ń":{"x_min":111,"x_max":891,"ha":1002,"o":"m 891 0 l 756 0 l 236 784 l 236 0 l 111 0 l 111 994 l 245 994 l 766 209 l 766 994 l 891 994 l 891 0 m 639 1248 l 490 1057 l 389 1057 l 479 1248 l 639 1248 "},"h":{"x_min":94,"x_max":681,"ha":773,"o":"m 222 628 q 437 736 317 736 q 681 470 681 736 l 681 0 l 553 0 l 553 465 q 521 592 553 553 q 417 631 489 631 q 222 515 319 631 l 222 0 l 94 0 l 94 994 l 222 994 l 222 628 "},"⸗":{"x_min":45,"x_max":418,"ha":463,"o":"m 418 278 l 45 135 l 45 224 l 418 366 l 418 278 m 418 481 l 45 339 l 45 428 l 418 570 l 418 481 "},".":{"x_min":123,"x_max":262,"ha":385,"o":"m 262 0 l 123 0 l 123 139 l 262 139 l 262 0 "},"f":{"x_min":11,"x_max":414.546875,"ha":387,"o":"m 245 619 l 245 0 l 117 0 l 117 619 l 11 619 l 11 719 l 117 719 l 117 782 q 318 1011 117 1011 q 414 1002 380 1011 l 414 891 q 337 898 376 898 q 267 871 290 898 q 245 781 245 845 l 245 719 l 381 719 l 381 619 l 245 619 "},"“":{"x_min":57,"x_max":406,"ha":463,"o":"m 406 676 l 267 676 l 267 815 q 302 957 267 903 q 406 1011 337 1011 l 406 946 q 338 815 338 946 l 406 815 l 406 676 m 196 676 l 57 676 l 57 815 q 92 957 57 903 q 196 1011 127 1011 l 196 946 q 128 815 128 946 l 196 815 l 196 676 "},"ʷ":{"x_min":6.78125,"x_max":668.671875,"ha":675,"o":"m 668 810 l 524 328 l 442 328 l 337 682 l 233 328 l 151 328 l 6 810 l 101 810 l 189 442 l 298 810 l 377 810 l 485 442 l 574 810 l 668 810 "},"A":{"x_min":-1.359375,"x_max":927.734375,"ha":926,"o":"m 625 406 l 450 867 l 283 406 l 625 406 m 927 0 l 779 0 l 663 302 l 247 302 l 137 0 l -1 0 l 380 994 l 522 994 l 927 0 "},"‘":{"x_min":85,"x_max":224.5,"ha":309,"o":"m 224 676 l 85 676 l 85 815 q 120 957 85 903 q 224 1011 155 1011 l 224 946 q 156 815 156 946 l 224 815 l 224 676 "},"O":{"x_min":65,"x_max":1016,"ha":1080,"o":"m 541 1012 q 883 870 750 1012 q 1016 497 1016 729 q 883 124 1016 265 q 541 -17 750 -17 q 198 124 332 -17 q 65 497 65 266 q 198 870 65 729 q 541 1012 332 1012 m 540 96 q 784 201 689 96 q 880 497 880 307 q 785 793 880 687 q 542 899 690 899 q 296 793 392 899 q 201 497 201 687 q 296 202 201 308 q 540 96 392 96 "},"Đ":{"x_min":1,"x_max":933,"ha":1003,"o":"m 111 994 l 426 994 q 933 502 933 994 q 426 0 933 0 l 111 0 l 111 438 l 1 438 l 1 556 l 111 556 l 111 994 m 242 118 l 423 118 q 718 218 639 118 q 797 502 797 319 q 718 778 797 680 q 423 876 640 876 l 242 876 l 242 556 l 514 556 l 514 438 l 242 438 l 242 118 "},"˺":{"x_min":104.171875,"x_max":359,"ha":463,"o":"m 359 739 l 271 739 l 271 906 l 104 906 l 104 994 l 359 994 l 359 739 "},"3":{"x_min":64,"x_max":712,"ha":772,"o":"m 523 546 q 662 453 613 522 q 712 293 712 385 q 617 69 712 155 q 382 -17 522 -17 q 152 59 241 -17 q 64 262 64 136 l 193 262 q 242 135 193 188 q 384 83 291 83 q 526 140 473 83 q 580 290 580 198 q 524 434 580 383 q 363 485 469 485 l 315 485 l 315 584 l 344 584 q 530 755 530 584 q 489 870 530 830 q 374 911 448 911 q 205 753 222 911 l 73 753 q 169 944 87 878 q 371 1011 251 1011 q 583 938 504 1011 q 662 752 662 866 q 627 632 662 689 q 523 546 593 575 "},"9":{"x_min":58,"x_max":710,"ha":772,"o":"m 574 458 q 353 350 481 350 q 143 440 229 350 q 58 670 58 531 q 143 911 58 812 q 369 1011 228 1011 q 620 886 530 1011 q 710 528 710 762 q 357 -17 710 -17 q 168 45 246 -17 q 74 231 91 108 l 206 231 q 367 83 222 83 q 517 179 460 83 q 574 458 574 276 m 580 556 q 523 819 580 728 q 372 911 467 911 q 239 844 289 911 q 190 678 190 777 q 240 514 190 578 q 375 450 290 450 q 580 556 479 450 "},"˟":{"x_min":30.515625,"x_max":499.8125,"ha":530,"o":"m 499 590 l 434 525 l 265 695 l 95 525 l 30 590 l 200 759 l 30 929 l 95 994 l 265 824 l 434 994 l 499 929 l 329 759 l 499 590 "},"l":{"x_min":94,"x_max":222,"ha":316,"o":"m 222 0 l 94 0 l 94 994 l 222 994 l 222 0 "},"4":{"x_min":21,"x_max":708,"ha":772,"o":"m 708 237 l 574 237 l 574 0 l 446 0 l 446 237 l 21 237 l 21 350 l 473 1007 l 574 1007 l 574 350 l 708 350 l 708 237 m 446 350 l 446 805 l 140 350 l 446 350 "}," ":{"x_min":0,"x_max":0,"ha":116,"o":"m 0 0 l 0 0 "},"Ś":{"x_min":64.796875,"x_max":854,"ha":926,"o":"m 484 -17 q 169 77 273 -17 q 64 319 64 171 l 189 319 q 281 155 199 208 q 480 102 364 102 q 658 147 591 102 q 726 270 726 192 q 656 389 726 352 q 415 463 586 427 q 171 564 245 499 q 97 735 97 628 q 193 933 97 856 q 451 1011 290 1011 q 723 933 620 1011 q 827 713 827 855 l 702 713 q 455 893 682 893 q 285 851 345 893 q 225 741 225 810 q 273 648 225 679 q 454 588 321 617 q 664 530 587 558 q 798 441 742 501 q 854 280 854 381 q 751 67 854 152 q 484 -17 649 -17 m 590 1248 l 440 1057 l 340 1057 l 430 1248 l 590 1248 "},"Ť":{"x_min":31,"x_max":818,"ha":849,"o":"m 818 876 l 489 876 l 489 0 l 357 0 l 357 876 l 31 876 l 31 994 l 818 994 l 818 876 m 637 1248 l 487 1057 l 357 1057 l 207 1248 l 346 1248 l 422 1132 l 499 1248 l 637 1248 "},"ŗ":{"x_min":76.609375,"x_max":467.5,"ha":462,"o":"m 467 602 q 389 611 440 611 q 222 508 291 611 l 222 0 l 94 0 l 94 720 l 222 720 l 222 619 q 409 736 303 736 q 467 730 436 736 l 467 602 m 143 -47 l 182 -47 q 352 -159 352 -47 q 146 -290 352 -290 q 76 -290 115 -290 l 76 -208 q 150 -213 113 -213 q 238 -157 238 -213 q 143 -107 238 -107 l 143 -47 "}}}
